<svg xmlns="http://www.w3.org/2000/svg" width="1536" height="695" style="cursor: move;"><g><path class="link" marker-end="" d="M554.6666666666666,37.5C644.6666666666666,37.5 644.6666666666666,117.5 734.6666666666666,117.5" style="stroke-width: 1.75; stroke-opacity: 1; stroke: rgb(80, 80, 80); fill: none;"></path><path class="link" marker-end="" d="M554.6666666666666,37.5C644.6666666666666,37.5 644.6666666666666,157.5 734.6666666666666,157.5" style="stroke-width: 1.75; stroke-opacity: 1; stroke: rgb(80, 80, 80); fill: none;"></path><path class="link" marker-end="" d="M554.6666666666666,37.5C644.6666666666666,37.5 644.6666666666666,197.5 734.6666666666666,197.5" style="stroke-width: 1.75; stroke-opacity: 1; stroke: rgb(80, 80, 80); fill: none;"></path><path class="link" marker-end="" d="M554.6666666666666,37.5C644.6666666666666,37.5 644.6666666666666,237.5 734.6666666666666,237.5" style="stroke-width: 1.75; stroke-opacity: 1; stroke: rgb(80, 80, 80); fill: none;"></path><path class="link" marker-end="" d="M554.6666666666666,37.5C644.6666666666666,37.5 644.6666666666666,277.5 734.6666666666666,277.5" style="stroke-width: 1.75; stroke-opacity: 1; stroke: rgb(80, 80, 80); fill: none;"></path><path class="link" marker-end="" d="M554.6666666666666,37.5C644.6666666666666,37.5 644.6666666666666,317.5 734.6666666666666,317.5" style="stroke-width: 1.75; stroke-opacity: 1; stroke: rgb(80, 80, 80); fill: none;"></path><path class="link" marker-end="" d="M554.6666666666666,37.5C644.6666666666666,37.5 644.6666666666666,357.5 734.6666666666666,357.5" style="stroke-width: 1.75; stroke-opacity: 1; stroke: rgb(80, 80, 80); fill: none;"></path><path class="link" marker-end="" d="M554.6666666666666,37.5C644.6666666666666,37.5 644.6666666666666,397.5 734.6666666666666,397.5" style="stroke-width: 1.75; stroke-opacity: 1; stroke: rgb(80, 80, 80); fill: none;"></path><path class="link" marker-end="" d="M554.6666666666666,37.5C644.6666666666666,37.5 644.6666666666666,437.5 734.6666666666666,437.5" style="stroke-width: 1.75; stroke-opacity: 1; stroke: rgb(80, 80, 80); fill: none;"></path><path class="link" marker-end="" d="M554.6666666666666,37.5C644.6666666666666,37.5 644.6666666666666,477.5 734.6666666666666,477.5" style="stroke-width: 1.75; stroke-opacity: 1; stroke: rgb(80, 80, 80); fill: none;"></path><path class="link" marker-end="" d="M554.6666666666666,37.5C644.6666666666666,37.5 644.6666666666666,517.5 734.6666666666666,517.5" style="stroke-width: 1.75; stroke-opacity: 1; stroke: rgb(80, 80, 80); fill: none;"></path><path class="link" marker-end="" d="M554.6666666666666,37.5C644.6666666666666,37.5 644.6666666666666,557.5 734.6666666666666,557.5" style="stroke-width: 1.75; stroke-opacity: 1; stroke: rgb(80, 80, 80); fill: none;"></path><path class="link" marker-end="" d="M554.6666666666666,77.5C644.6666666666666,77.5 644.6666666666666,117.5 734.6666666666666,117.5" style="stroke-width: 1.75; stroke-opacity: 1; stroke: rgb(80, 80, 80); fill: none;"></path><path class="link" marker-end="" d="M554.6666666666666,77.5C644.6666666666666,77.5 644.6666666666666,157.5 734.6666666666666,157.5" style="stroke-width: 1.75; stroke-opacity: 1; stroke: rgb(80, 80, 80); fill: none;"></path><path class="link" marker-end="" d="M554.6666666666666,77.5C644.6666666666666,77.5 644.6666666666666,197.5 734.6666666666666,197.5" style="stroke-width: 1.75; stroke-opacity: 1; stroke: rgb(80, 80, 80); fill: none;"></path><path class="link" marker-end="" d="M554.6666666666666,77.5C644.6666666666666,77.5 644.6666666666666,237.5 734.6666666666666,237.5" style="stroke-width: 1.75; stroke-opacity: 1; stroke: rgb(80, 80, 80); fill: none;"></path><path class="link" marker-end="" d="M554.6666666666666,77.5C644.6666666666666,77.5 644.6666666666666,277.5 734.6666666666666,277.5" style="stroke-width: 1.75; stroke-opacity: 1; stroke: rgb(80, 80, 80); fill: none;"></path><path class="link" marker-end="" d="M554.6666666666666,77.5C644.6666666666666,77.5 644.6666666666666,317.5 734.6666666666666,317.5" style="stroke-width: 1.75; stroke-opacity: 1; stroke: rgb(80, 80, 80); fill: none;"></path><path class="link" marker-end="" d="M554.6666666666666,77.5C644.6666666666666,77.5 644.6666666666666,357.5 734.6666666666666,357.5" style="stroke-width: 1.75; stroke-opacity: 1; stroke: rgb(80, 80, 80); fill: none;"></path><path class="link" marker-end="" d="M554.6666666666666,77.5C644.6666666666666,77.5 644.6666666666666,397.5 734.6666666666666,397.5" style="stroke-width: 1.75; stroke-opacity: 1; stroke: rgb(80, 80, 80); fill: none;"></path><path class="link" marker-end="" d="M554.6666666666666,77.5C644.6666666666666,77.5 644.6666666666666,437.5 734.6666666666666,437.5" style="stroke-width: 1.75; stroke-opacity: 1; stroke: rgb(80, 80, 80); fill: none;"></path><path class="link" marker-end="" d="M554.6666666666666,77.5C644.6666666666666,77.5 644.6666666666666,477.5 734.6666666666666,477.5" style="stroke-width: 1.75; stroke-opacity: 1; stroke: rgb(80, 80, 80); fill: none;"></path><path class="link" marker-end="" d="M554.6666666666666,77.5C644.6666666666666,77.5 644.6666666666666,517.5 734.6666666666666,517.5" style="stroke-width: 1.75; stroke-opacity: 1; stroke: rgb(80, 80, 80); fill: none;"></path><path class="link" marker-end="" d="M554.6666666666666,77.5C644.6666666666666,77.5 644.6666666666666,557.5 734.6666666666666,557.5" style="stroke-width: 1.75; stroke-opacity: 1; stroke: rgb(80, 80, 80); fill: none;"></path><path class="link" marker-end="" d="M554.6666666666666,117.5C644.6666666666666,117.5 644.6666666666666,117.5 734.6666666666666,117.5" style="stroke-width: 1.75; stroke-opacity: 1; stroke: rgb(80, 80, 80); fill: none;"></path><path class="link" marker-end="" d="M554.6666666666666,117.5C644.6666666666666,117.5 644.6666666666666,157.5 734.6666666666666,157.5" style="stroke-width: 1.75; stroke-opacity: 1; stroke: rgb(80, 80, 80); fill: none;"></path><path class="link" marker-end="" d="M554.6666666666666,117.5C644.6666666666666,117.5 644.6666666666666,197.5 734.6666666666666,197.5" style="stroke-width: 1.75; stroke-opacity: 1; stroke: rgb(80, 80, 80); fill: none;"></path><path class="link" marker-end="" d="M554.6666666666666,117.5C644.6666666666666,117.5 644.6666666666666,237.5 734.6666666666666,237.5" style="stroke-width: 1.75; stroke-opacity: 1; stroke: rgb(80, 80, 80); fill: none;"></path><path class="link" marker-end="" d="M554.6666666666666,117.5C644.6666666666666,117.5 644.6666666666666,277.5 734.6666666666666,277.5" style="stroke-width: 1.75; stroke-opacity: 1; stroke: rgb(80, 80, 80); fill: none;"></path><path class="link" marker-end="" d="M554.6666666666666,117.5C644.6666666666666,117.5 644.6666666666666,317.5 734.6666666666666,317.5" style="stroke-width: 1.75; stroke-opacity: 1; stroke: rgb(80, 80, 80); fill: none;"></path><path class="link" marker-end="" d="M554.6666666666666,117.5C644.6666666666666,117.5 644.6666666666666,357.5 734.6666666666666,357.5" style="stroke-width: 1.75; stroke-opacity: 1; stroke: rgb(80, 80, 80); fill: none;"></path><path class="link" marker-end="" d="M554.6666666666666,117.5C644.6666666666666,117.5 644.6666666666666,397.5 734.6666666666666,397.5" style="stroke-width: 1.75; stroke-opacity: 1; stroke: rgb(80, 80, 80); fill: none;"></path><path class="link" marker-end="" d="M554.6666666666666,117.5C644.6666666666666,117.5 644.6666666666666,437.5 734.6666666666666,437.5" style="stroke-width: 1.75; stroke-opacity: 1; stroke: rgb(80, 80, 80); fill: none;"></path><path class="link" marker-end="" d="M554.6666666666666,117.5C644.6666666666666,117.5 644.6666666666666,477.5 734.6666666666666,477.5" style="stroke-width: 1.75; stroke-opacity: 1; stroke: rgb(80, 80, 80); fill: none;"></path><path class="link" marker-end="" d="M554.6666666666666,117.5C644.6666666666666,117.5 644.6666666666666,517.5 734.6666666666666,517.5" style="stroke-width: 1.75; stroke-opacity: 1; stroke: rgb(80, 80, 80); fill: none;"></path><path class="link" marker-end="" d="M554.6666666666666,117.5C644.6666666666666,117.5 644.6666666666666,557.5 734.6666666666666,557.5" style="stroke-width: 1.75; stroke-opacity: 1; stroke: rgb(80, 80, 80); fill: none;"></path><path class="link" marker-end="" d="M554.6666666666666,157.5C644.6666666666666,157.5 644.6666666666666,117.5 734.6666666666666,117.5" style="stroke-width: 1.75; stroke-opacity: 1; stroke: rgb(80, 80, 80); fill: none;"></path><path class="link" marker-end="" d="M554.6666666666666,157.5C644.6666666666666,157.5 644.6666666666666,157.5 734.6666666666666,157.5" style="stroke-width: 1.75; stroke-opacity: 1; stroke: rgb(80, 80, 80); fill: none;"></path><path class="link" marker-end="" d="M554.6666666666666,157.5C644.6666666666666,157.5 644.6666666666666,197.5 734.6666666666666,197.5" style="stroke-width: 1.75; stroke-opacity: 1; stroke: rgb(80, 80, 80); fill: none;"></path><path class="link" marker-end="" d="M554.6666666666666,157.5C644.6666666666666,157.5 644.6666666666666,237.5 734.6666666666666,237.5" style="stroke-width: 1.75; stroke-opacity: 1; stroke: rgb(80, 80, 80); fill: none;"></path><path class="link" marker-end="" d="M554.6666666666666,157.5C644.6666666666666,157.5 644.6666666666666,277.5 734.6666666666666,277.5" style="stroke-width: 1.75; stroke-opacity: 1; stroke: rgb(80, 80, 80); fill: none;"></path><path class="link" marker-end="" d="M554.6666666666666,157.5C644.6666666666666,157.5 644.6666666666666,317.5 734.6666666666666,317.5" style="stroke-width: 1.75; stroke-opacity: 1; stroke: rgb(80, 80, 80); fill: none;"></path><path class="link" marker-end="" d="M554.6666666666666,157.5C644.6666666666666,157.5 644.6666666666666,357.5 734.6666666666666,357.5" style="stroke-width: 1.75; stroke-opacity: 1; stroke: rgb(80, 80, 80); fill: none;"></path><path class="link" marker-end="" d="M554.6666666666666,157.5C644.6666666666666,157.5 644.6666666666666,397.5 734.6666666666666,397.5" style="stroke-width: 1.75; stroke-opacity: 1; stroke: rgb(80, 80, 80); fill: none;"></path><path class="link" marker-end="" d="M554.6666666666666,157.5C644.6666666666666,157.5 644.6666666666666,437.5 734.6666666666666,437.5" style="stroke-width: 1.75; stroke-opacity: 1; stroke: rgb(80, 80, 80); fill: none;"></path><path class="link" marker-end="" d="M554.6666666666666,157.5C644.6666666666666,157.5 644.6666666666666,477.5 734.6666666666666,477.5" style="stroke-width: 1.75; stroke-opacity: 1; stroke: rgb(80, 80, 80); fill: none;"></path><path class="link" marker-end="" d="M554.6666666666666,157.5C644.6666666666666,157.5 644.6666666666666,517.5 734.6666666666666,517.5" style="stroke-width: 1.75; stroke-opacity: 1; stroke: rgb(80, 80, 80); fill: none;"></path><path class="link" marker-end="" d="M554.6666666666666,157.5C644.6666666666666,157.5 644.6666666666666,557.5 734.6666666666666,557.5" style="stroke-width: 1.75; stroke-opacity: 1; stroke: rgb(80, 80, 80); fill: none;"></path><path class="link" marker-end="" d="M554.6666666666666,197.5C644.6666666666666,197.5 644.6666666666666,117.5 734.6666666666666,117.5" style="stroke-width: 1.75; stroke-opacity: 1; stroke: rgb(80, 80, 80); fill: none;"></path><path class="link" marker-end="" d="M554.6666666666666,197.5C644.6666666666666,197.5 644.6666666666666,157.5 734.6666666666666,157.5" style="stroke-width: 1.75; stroke-opacity: 1; stroke: rgb(80, 80, 80); fill: none;"></path><path class="link" marker-end="" d="M554.6666666666666,197.5C644.6666666666666,197.5 644.6666666666666,197.5 734.6666666666666,197.5" style="stroke-width: 1.75; stroke-opacity: 1; stroke: rgb(80, 80, 80); fill: none;"></path><path class="link" marker-end="" d="M554.6666666666666,197.5C644.6666666666666,197.5 644.6666666666666,237.5 734.6666666666666,237.5" style="stroke-width: 1.75; stroke-opacity: 1; stroke: rgb(80, 80, 80); fill: none;"></path><path class="link" marker-end="" d="M554.6666666666666,197.5C644.6666666666666,197.5 644.6666666666666,277.5 734.6666666666666,277.5" style="stroke-width: 1.75; stroke-opacity: 1; stroke: rgb(80, 80, 80); fill: none;"></path><path class="link" marker-end="" d="M554.6666666666666,197.5C644.6666666666666,197.5 644.6666666666666,317.5 734.6666666666666,317.5" style="stroke-width: 1.75; stroke-opacity: 1; stroke: rgb(80, 80, 80); fill: none;"></path><path class="link" marker-end="" d="M554.6666666666666,197.5C644.6666666666666,197.5 644.6666666666666,357.5 734.6666666666666,357.5" style="stroke-width: 1.75; stroke-opacity: 1; stroke: rgb(80, 80, 80); fill: none;"></path><path class="link" marker-end="" d="M554.6666666666666,197.5C644.6666666666666,197.5 644.6666666666666,397.5 734.6666666666666,397.5" style="stroke-width: 1.75; stroke-opacity: 1; stroke: rgb(80, 80, 80); fill: none;"></path><path class="link" marker-end="" d="M554.6666666666666,197.5C644.6666666666666,197.5 644.6666666666666,437.5 734.6666666666666,437.5" style="stroke-width: 1.75; stroke-opacity: 1; stroke: rgb(80, 80, 80); fill: none;"></path><path class="link" marker-end="" d="M554.6666666666666,197.5C644.6666666666666,197.5 644.6666666666666,477.5 734.6666666666666,477.5" style="stroke-width: 1.75; stroke-opacity: 1; stroke: rgb(80, 80, 80); fill: none;"></path><path class="link" marker-end="" d="M554.6666666666666,197.5C644.6666666666666,197.5 644.6666666666666,517.5 734.6666666666666,517.5" style="stroke-width: 1.75; stroke-opacity: 1; stroke: rgb(80, 80, 80); fill: none;"></path><path class="link" marker-end="" d="M554.6666666666666,197.5C644.6666666666666,197.5 644.6666666666666,557.5 734.6666666666666,557.5" style="stroke-width: 1.75; stroke-opacity: 1; stroke: rgb(80, 80, 80); fill: none;"></path><path class="link" marker-end="" d="M554.6666666666666,237.5C644.6666666666666,237.5 644.6666666666666,117.5 734.6666666666666,117.5" style="stroke-width: 1.75; stroke-opacity: 1; stroke: rgb(80, 80, 80); fill: none;"></path><path class="link" marker-end="" d="M554.6666666666666,237.5C644.6666666666666,237.5 644.6666666666666,157.5 734.6666666666666,157.5" style="stroke-width: 1.75; stroke-opacity: 1; stroke: rgb(80, 80, 80); fill: none;"></path><path class="link" marker-end="" d="M554.6666666666666,237.5C644.6666666666666,237.5 644.6666666666666,197.5 734.6666666666666,197.5" style="stroke-width: 1.75; stroke-opacity: 1; stroke: rgb(80, 80, 80); fill: none;"></path><path class="link" marker-end="" d="M554.6666666666666,237.5C644.6666666666666,237.5 644.6666666666666,237.5 734.6666666666666,237.5" style="stroke-width: 1.75; stroke-opacity: 1; stroke: rgb(80, 80, 80); fill: none;"></path><path class="link" marker-end="" d="M554.6666666666666,237.5C644.6666666666666,237.5 644.6666666666666,277.5 734.6666666666666,277.5" style="stroke-width: 1.75; stroke-opacity: 1; stroke: rgb(80, 80, 80); fill: none;"></path><path class="link" marker-end="" d="M554.6666666666666,237.5C644.6666666666666,237.5 644.6666666666666,317.5 734.6666666666666,317.5" style="stroke-width: 1.75; stroke-opacity: 1; stroke: rgb(80, 80, 80); fill: none;"></path><path class="link" marker-end="" d="M554.6666666666666,237.5C644.6666666666666,237.5 644.6666666666666,357.5 734.6666666666666,357.5" style="stroke-width: 1.75; stroke-opacity: 1; stroke: rgb(80, 80, 80); fill: none;"></path><path class="link" marker-end="" d="M554.6666666666666,237.5C644.6666666666666,237.5 644.6666666666666,397.5 734.6666666666666,397.5" style="stroke-width: 1.75; stroke-opacity: 1; stroke: rgb(80, 80, 80); fill: none;"></path><path class="link" marker-end="" d="M554.6666666666666,237.5C644.6666666666666,237.5 644.6666666666666,437.5 734.6666666666666,437.5" style="stroke-width: 1.75; stroke-opacity: 1; stroke: rgb(80, 80, 80); fill: none;"></path><path class="link" marker-end="" d="M554.6666666666666,237.5C644.6666666666666,237.5 644.6666666666666,477.5 734.6666666666666,477.5" style="stroke-width: 1.75; stroke-opacity: 1; stroke: rgb(80, 80, 80); fill: none;"></path><path class="link" marker-end="" d="M554.6666666666666,237.5C644.6666666666666,237.5 644.6666666666666,517.5 734.6666666666666,517.5" style="stroke-width: 1.75; stroke-opacity: 1; stroke: rgb(80, 80, 80); fill: none;"></path><path class="link" marker-end="" d="M554.6666666666666,237.5C644.6666666666666,237.5 644.6666666666666,557.5 734.6666666666666,557.5" style="stroke-width: 1.75; stroke-opacity: 1; stroke: rgb(80, 80, 80); fill: none;"></path><path class="link" marker-end="" d="M554.6666666666666,277.5C644.6666666666666,277.5 644.6666666666666,117.5 734.6666666666666,117.5" style="stroke-width: 1.75; stroke-opacity: 1; stroke: rgb(80, 80, 80); fill: none;"></path><path class="link" marker-end="" d="M554.6666666666666,277.5C644.6666666666666,277.5 644.6666666666666,157.5 734.6666666666666,157.5" style="stroke-width: 1.75; stroke-opacity: 1; stroke: rgb(80, 80, 80); fill: none;"></path><path class="link" marker-end="" d="M554.6666666666666,277.5C644.6666666666666,277.5 644.6666666666666,197.5 734.6666666666666,197.5" style="stroke-width: 1.75; stroke-opacity: 1; stroke: rgb(80, 80, 80); fill: none;"></path><path class="link" marker-end="" d="M554.6666666666666,277.5C644.6666666666666,277.5 644.6666666666666,237.5 734.6666666666666,237.5" style="stroke-width: 1.75; stroke-opacity: 1; stroke: rgb(80, 80, 80); fill: none;"></path><path class="link" marker-end="" d="M554.6666666666666,277.5C644.6666666666666,277.5 644.6666666666666,277.5 734.6666666666666,277.5" style="stroke-width: 1.75; stroke-opacity: 1; stroke: rgb(80, 80, 80); fill: none;"></path><path class="link" marker-end="" d="M554.6666666666666,277.5C644.6666666666666,277.5 644.6666666666666,317.5 734.6666666666666,317.5" style="stroke-width: 1.75; stroke-opacity: 1; stroke: rgb(80, 80, 80); fill: none;"></path><path class="link" marker-end="" d="M554.6666666666666,277.5C644.6666666666666,277.5 644.6666666666666,357.5 734.6666666666666,357.5" style="stroke-width: 1.75; stroke-opacity: 1; stroke: rgb(80, 80, 80); fill: none;"></path><path class="link" marker-end="" d="M554.6666666666666,277.5C644.6666666666666,277.5 644.6666666666666,397.5 734.6666666666666,397.5" style="stroke-width: 1.75; stroke-opacity: 1; stroke: rgb(80, 80, 80); fill: none;"></path><path class="link" marker-end="" d="M554.6666666666666,277.5C644.6666666666666,277.5 644.6666666666666,437.5 734.6666666666666,437.5" style="stroke-width: 1.75; stroke-opacity: 1; stroke: rgb(80, 80, 80); fill: none;"></path><path class="link" marker-end="" d="M554.6666666666666,277.5C644.6666666666666,277.5 644.6666666666666,477.5 734.6666666666666,477.5" style="stroke-width: 1.75; stroke-opacity: 1; stroke: rgb(80, 80, 80); fill: none;"></path><path class="link" marker-end="" d="M554.6666666666666,277.5C644.6666666666666,277.5 644.6666666666666,517.5 734.6666666666666,517.5" style="stroke-width: 1.75; stroke-opacity: 1; stroke: rgb(80, 80, 80); fill: none;"></path><path class="link" marker-end="" d="M554.6666666666666,277.5C644.6666666666666,277.5 644.6666666666666,557.5 734.6666666666666,557.5" style="stroke-width: 1.75; stroke-opacity: 1; stroke: rgb(80, 80, 80); fill: none;"></path><path class="link" marker-end="" d="M554.6666666666666,317.5C644.6666666666666,317.5 644.6666666666666,117.5 734.6666666666666,117.5" style="stroke-width: 1.75; stroke-opacity: 1; stroke: rgb(80, 80, 80); fill: none;"></path><path class="link" marker-end="" d="M554.6666666666666,317.5C644.6666666666666,317.5 644.6666666666666,157.5 734.6666666666666,157.5" style="stroke-width: 1.75; stroke-opacity: 1; stroke: rgb(80, 80, 80); fill: none;"></path><path class="link" marker-end="" d="M554.6666666666666,317.5C644.6666666666666,317.5 644.6666666666666,197.5 734.6666666666666,197.5" style="stroke-width: 1.75; stroke-opacity: 1; stroke: rgb(80, 80, 80); fill: none;"></path><path class="link" marker-end="" d="M554.6666666666666,317.5C644.6666666666666,317.5 644.6666666666666,237.5 734.6666666666666,237.5" style="stroke-width: 1.75; stroke-opacity: 1; stroke: rgb(80, 80, 80); fill: none;"></path><path class="link" marker-end="" d="M554.6666666666666,317.5C644.6666666666666,317.5 644.6666666666666,277.5 734.6666666666666,277.5" style="stroke-width: 1.75; stroke-opacity: 1; stroke: rgb(80, 80, 80); fill: none;"></path><path class="link" marker-end="" d="M554.6666666666666,317.5C644.6666666666666,317.5 644.6666666666666,317.5 734.6666666666666,317.5" style="stroke-width: 1.75; stroke-opacity: 1; stroke: rgb(80, 80, 80); fill: none;"></path><path class="link" marker-end="" d="M554.6666666666666,317.5C644.6666666666666,317.5 644.6666666666666,357.5 734.6666666666666,357.5" style="stroke-width: 1.75; stroke-opacity: 1; stroke: rgb(80, 80, 80); fill: none;"></path><path class="link" marker-end="" d="M554.6666666666666,317.5C644.6666666666666,317.5 644.6666666666666,397.5 734.6666666666666,397.5" style="stroke-width: 1.75; stroke-opacity: 1; stroke: rgb(80, 80, 80); fill: none;"></path><path class="link" marker-end="" d="M554.6666666666666,317.5C644.6666666666666,317.5 644.6666666666666,437.5 734.6666666666666,437.5" style="stroke-width: 1.75; stroke-opacity: 1; stroke: rgb(80, 80, 80); fill: none;"></path><path class="link" marker-end="" d="M554.6666666666666,317.5C644.6666666666666,317.5 644.6666666666666,477.5 734.6666666666666,477.5" style="stroke-width: 1.75; stroke-opacity: 1; stroke: rgb(80, 80, 80); fill: none;"></path><path class="link" marker-end="" d="M554.6666666666666,317.5C644.6666666666666,317.5 644.6666666666666,517.5 734.6666666666666,517.5" style="stroke-width: 1.75; stroke-opacity: 1; stroke: rgb(80, 80, 80); fill: none;"></path><path class="link" marker-end="" d="M554.6666666666666,317.5C644.6666666666666,317.5 644.6666666666666,557.5 734.6666666666666,557.5" style="stroke-width: 1.75; stroke-opacity: 1; stroke: rgb(80, 80, 80); fill: none;"></path><path class="link" marker-end="" d="M554.6666666666666,357.5C644.6666666666666,357.5 644.6666666666666,117.5 734.6666666666666,117.5" style="stroke-width: 1.75; stroke-opacity: 1; stroke: rgb(80, 80, 80); fill: none;"></path><path class="link" marker-end="" d="M554.6666666666666,357.5C644.6666666666666,357.5 644.6666666666666,157.5 734.6666666666666,157.5" style="stroke-width: 1.75; stroke-opacity: 1; stroke: rgb(80, 80, 80); fill: none;"></path><path class="link" marker-end="" d="M554.6666666666666,357.5C644.6666666666666,357.5 644.6666666666666,197.5 734.6666666666666,197.5" style="stroke-width: 1.75; stroke-opacity: 1; stroke: rgb(80, 80, 80); fill: none;"></path><path class="link" marker-end="" d="M554.6666666666666,357.5C644.6666666666666,357.5 644.6666666666666,237.5 734.6666666666666,237.5" style="stroke-width: 1.75; stroke-opacity: 1; stroke: rgb(80, 80, 80); fill: none;"></path><path class="link" marker-end="" d="M554.6666666666666,357.5C644.6666666666666,357.5 644.6666666666666,277.5 734.6666666666666,277.5" style="stroke-width: 1.75; stroke-opacity: 1; stroke: rgb(80, 80, 80); fill: none;"></path><path class="link" marker-end="" d="M554.6666666666666,357.5C644.6666666666666,357.5 644.6666666666666,317.5 734.6666666666666,317.5" style="stroke-width: 1.75; stroke-opacity: 1; stroke: rgb(80, 80, 80); fill: none;"></path><path class="link" marker-end="" d="M554.6666666666666,357.5C644.6666666666666,357.5 644.6666666666666,357.5 734.6666666666666,357.5" style="stroke-width: 1.75; stroke-opacity: 1; stroke: rgb(80, 80, 80); fill: none;"></path><path class="link" marker-end="" d="M554.6666666666666,357.5C644.6666666666666,357.5 644.6666666666666,397.5 734.6666666666666,397.5" style="stroke-width: 1.75; stroke-opacity: 1; stroke: rgb(80, 80, 80); fill: none;"></path><path class="link" marker-end="" d="M554.6666666666666,357.5C644.6666666666666,357.5 644.6666666666666,437.5 734.6666666666666,437.5" style="stroke-width: 1.75; stroke-opacity: 1; stroke: rgb(80, 80, 80); fill: none;"></path><path class="link" marker-end="" d="M554.6666666666666,357.5C644.6666666666666,357.5 644.6666666666666,477.5 734.6666666666666,477.5" style="stroke-width: 1.75; stroke-opacity: 1; stroke: rgb(80, 80, 80); fill: none;"></path><path class="link" marker-end="" d="M554.6666666666666,357.5C644.6666666666666,357.5 644.6666666666666,517.5 734.6666666666666,517.5" style="stroke-width: 1.75; stroke-opacity: 1; stroke: rgb(80, 80, 80); fill: none;"></path><path class="link" marker-end="" d="M554.6666666666666,357.5C644.6666666666666,357.5 644.6666666666666,557.5 734.6666666666666,557.5" style="stroke-width: 1.75; stroke-opacity: 1; stroke: rgb(80, 80, 80); fill: none;"></path><path class="link" marker-end="" d="M554.6666666666666,397.5C644.6666666666666,397.5 644.6666666666666,117.5 734.6666666666666,117.5" style="stroke-width: 1.75; stroke-opacity: 1; stroke: rgb(80, 80, 80); fill: none;"></path><path class="link" marker-end="" d="M554.6666666666666,397.5C644.6666666666666,397.5 644.6666666666666,157.5 734.6666666666666,157.5" style="stroke-width: 1.75; stroke-opacity: 1; stroke: rgb(80, 80, 80); fill: none;"></path><path class="link" marker-end="" d="M554.6666666666666,397.5C644.6666666666666,397.5 644.6666666666666,197.5 734.6666666666666,197.5" style="stroke-width: 1.75; stroke-opacity: 1; stroke: rgb(80, 80, 80); fill: none;"></path><path class="link" marker-end="" d="M554.6666666666666,397.5C644.6666666666666,397.5 644.6666666666666,237.5 734.6666666666666,237.5" style="stroke-width: 1.75; stroke-opacity: 1; stroke: rgb(80, 80, 80); fill: none;"></path><path class="link" marker-end="" d="M554.6666666666666,397.5C644.6666666666666,397.5 644.6666666666666,277.5 734.6666666666666,277.5" style="stroke-width: 1.75; stroke-opacity: 1; stroke: rgb(80, 80, 80); fill: none;"></path><path class="link" marker-end="" d="M554.6666666666666,397.5C644.6666666666666,397.5 644.6666666666666,317.5 734.6666666666666,317.5" style="stroke-width: 1.75; stroke-opacity: 1; stroke: rgb(80, 80, 80); fill: none;"></path><path class="link" marker-end="" d="M554.6666666666666,397.5C644.6666666666666,397.5 644.6666666666666,357.5 734.6666666666666,357.5" style="stroke-width: 1.75; stroke-opacity: 1; stroke: rgb(80, 80, 80); fill: none;"></path><path class="link" marker-end="" d="M554.6666666666666,397.5C644.6666666666666,397.5 644.6666666666666,397.5 734.6666666666666,397.5" style="stroke-width: 1.75; stroke-opacity: 1; stroke: rgb(80, 80, 80); fill: none;"></path><path class="link" marker-end="" d="M554.6666666666666,397.5C644.6666666666666,397.5 644.6666666666666,437.5 734.6666666666666,437.5" style="stroke-width: 1.75; stroke-opacity: 1; stroke: rgb(80, 80, 80); fill: none;"></path><path class="link" marker-end="" d="M554.6666666666666,397.5C644.6666666666666,397.5 644.6666666666666,477.5 734.6666666666666,477.5" style="stroke-width: 1.75; stroke-opacity: 1; stroke: rgb(80, 80, 80); fill: none;"></path><path class="link" marker-end="" d="M554.6666666666666,397.5C644.6666666666666,397.5 644.6666666666666,517.5 734.6666666666666,517.5" style="stroke-width: 1.75; stroke-opacity: 1; stroke: rgb(80, 80, 80); fill: none;"></path><path class="link" marker-end="" d="M554.6666666666666,397.5C644.6666666666666,397.5 644.6666666666666,557.5 734.6666666666666,557.5" style="stroke-width: 1.75; stroke-opacity: 1; stroke: rgb(80, 80, 80); fill: none;"></path><path class="link" marker-end="" d="M554.6666666666666,437.5C644.6666666666666,437.5 644.6666666666666,117.5 734.6666666666666,117.5" style="stroke-width: 1.75; stroke-opacity: 1; stroke: rgb(80, 80, 80); fill: none;"></path><path class="link" marker-end="" d="M554.6666666666666,437.5C644.6666666666666,437.5 644.6666666666666,157.5 734.6666666666666,157.5" style="stroke-width: 1.75; stroke-opacity: 1; stroke: rgb(80, 80, 80); fill: none;"></path><path class="link" marker-end="" d="M554.6666666666666,437.5C644.6666666666666,437.5 644.6666666666666,197.5 734.6666666666666,197.5" style="stroke-width: 1.75; stroke-opacity: 1; stroke: rgb(80, 80, 80); fill: none;"></path><path class="link" marker-end="" d="M554.6666666666666,437.5C644.6666666666666,437.5 644.6666666666666,237.5 734.6666666666666,237.5" style="stroke-width: 1.75; stroke-opacity: 1; stroke: rgb(80, 80, 80); fill: none;"></path><path class="link" marker-end="" d="M554.6666666666666,437.5C644.6666666666666,437.5 644.6666666666666,277.5 734.6666666666666,277.5" style="stroke-width: 1.75; stroke-opacity: 1; stroke: rgb(80, 80, 80); fill: none;"></path><path class="link" marker-end="" d="M554.6666666666666,437.5C644.6666666666666,437.5 644.6666666666666,317.5 734.6666666666666,317.5" style="stroke-width: 1.75; stroke-opacity: 1; stroke: rgb(80, 80, 80); fill: none;"></path><path class="link" marker-end="" d="M554.6666666666666,437.5C644.6666666666666,437.5 644.6666666666666,357.5 734.6666666666666,357.5" style="stroke-width: 1.75; stroke-opacity: 1; stroke: rgb(80, 80, 80); fill: none;"></path><path class="link" marker-end="" d="M554.6666666666666,437.5C644.6666666666666,437.5 644.6666666666666,397.5 734.6666666666666,397.5" style="stroke-width: 1.75; stroke-opacity: 1; stroke: rgb(80, 80, 80); fill: none;"></path><path class="link" marker-end="" d="M554.6666666666666,437.5C644.6666666666666,437.5 644.6666666666666,437.5 734.6666666666666,437.5" style="stroke-width: 1.75; stroke-opacity: 1; stroke: rgb(80, 80, 80); fill: none;"></path><path class="link" marker-end="" d="M554.6666666666666,437.5C644.6666666666666,437.5 644.6666666666666,477.5 734.6666666666666,477.5" style="stroke-width: 1.75; stroke-opacity: 1; stroke: rgb(80, 80, 80); fill: none;"></path><path class="link" marker-end="" d="M554.6666666666666,437.5C644.6666666666666,437.5 644.6666666666666,517.5 734.6666666666666,517.5" style="stroke-width: 1.75; stroke-opacity: 1; stroke: rgb(80, 80, 80); fill: none;"></path><path class="link" marker-end="" d="M554.6666666666666,437.5C644.6666666666666,437.5 644.6666666666666,557.5 734.6666666666666,557.5" style="stroke-width: 1.75; stroke-opacity: 1; stroke: rgb(80, 80, 80); fill: none;"></path><path class="link" marker-end="" d="M554.6666666666666,477.5C644.6666666666666,477.5 644.6666666666666,117.5 734.6666666666666,117.5" style="stroke-width: 1.75; stroke-opacity: 1; stroke: rgb(80, 80, 80); fill: none;"></path><path class="link" marker-end="" d="M554.6666666666666,477.5C644.6666666666666,477.5 644.6666666666666,157.5 734.6666666666666,157.5" style="stroke-width: 1.75; stroke-opacity: 1; stroke: rgb(80, 80, 80); fill: none;"></path><path class="link" marker-end="" d="M554.6666666666666,477.5C644.6666666666666,477.5 644.6666666666666,197.5 734.6666666666666,197.5" style="stroke-width: 1.75; stroke-opacity: 1; stroke: rgb(80, 80, 80); fill: none;"></path><path class="link" marker-end="" d="M554.6666666666666,477.5C644.6666666666666,477.5 644.6666666666666,237.5 734.6666666666666,237.5" style="stroke-width: 1.75; stroke-opacity: 1; stroke: rgb(80, 80, 80); fill: none;"></path><path class="link" marker-end="" d="M554.6666666666666,477.5C644.6666666666666,477.5 644.6666666666666,277.5 734.6666666666666,277.5" style="stroke-width: 1.75; stroke-opacity: 1; stroke: rgb(80, 80, 80); fill: none;"></path><path class="link" marker-end="" d="M554.6666666666666,477.5C644.6666666666666,477.5 644.6666666666666,317.5 734.6666666666666,317.5" style="stroke-width: 1.75; stroke-opacity: 1; stroke: rgb(80, 80, 80); fill: none;"></path><path class="link" marker-end="" d="M554.6666666666666,477.5C644.6666666666666,477.5 644.6666666666666,357.5 734.6666666666666,357.5" style="stroke-width: 1.75; stroke-opacity: 1; stroke: rgb(80, 80, 80); fill: none;"></path><path class="link" marker-end="" d="M554.6666666666666,477.5C644.6666666666666,477.5 644.6666666666666,397.5 734.6666666666666,397.5" style="stroke-width: 1.75; stroke-opacity: 1; stroke: rgb(80, 80, 80); fill: none;"></path><path class="link" marker-end="" d="M554.6666666666666,477.5C644.6666666666666,477.5 644.6666666666666,437.5 734.6666666666666,437.5" style="stroke-width: 1.75; stroke-opacity: 1; stroke: rgb(80, 80, 80); fill: none;"></path><path class="link" marker-end="" d="M554.6666666666666,477.5C644.6666666666666,477.5 644.6666666666666,477.5 734.6666666666666,477.5" style="stroke-width: 1.75; stroke-opacity: 1; stroke: rgb(80, 80, 80); fill: none;"></path><path class="link" marker-end="" d="M554.6666666666666,477.5C644.6666666666666,477.5 644.6666666666666,517.5 734.6666666666666,517.5" style="stroke-width: 1.75; stroke-opacity: 1; stroke: rgb(80, 80, 80); fill: none;"></path><path class="link" marker-end="" d="M554.6666666666666,477.5C644.6666666666666,477.5 644.6666666666666,557.5 734.6666666666666,557.5" style="stroke-width: 1.75; stroke-opacity: 1; stroke: rgb(80, 80, 80); fill: none;"></path><path class="link" marker-end="" d="M554.6666666666666,517.5C644.6666666666666,517.5 644.6666666666666,117.5 734.6666666666666,117.5" style="stroke-width: 1.75; stroke-opacity: 1; stroke: rgb(80, 80, 80); fill: none;"></path><path class="link" marker-end="" d="M554.6666666666666,517.5C644.6666666666666,517.5 644.6666666666666,157.5 734.6666666666666,157.5" style="stroke-width: 1.75; stroke-opacity: 1; stroke: rgb(80, 80, 80); fill: none;"></path><path class="link" marker-end="" d="M554.6666666666666,517.5C644.6666666666666,517.5 644.6666666666666,197.5 734.6666666666666,197.5" style="stroke-width: 1.75; stroke-opacity: 1; stroke: rgb(80, 80, 80); fill: none;"></path><path class="link" marker-end="" d="M554.6666666666666,517.5C644.6666666666666,517.5 644.6666666666666,237.5 734.6666666666666,237.5" style="stroke-width: 1.75; stroke-opacity: 1; stroke: rgb(80, 80, 80); fill: none;"></path><path class="link" marker-end="" d="M554.6666666666666,517.5C644.6666666666666,517.5 644.6666666666666,277.5 734.6666666666666,277.5" style="stroke-width: 1.75; stroke-opacity: 1; stroke: rgb(80, 80, 80); fill: none;"></path><path class="link" marker-end="" d="M554.6666666666666,517.5C644.6666666666666,517.5 644.6666666666666,317.5 734.6666666666666,317.5" style="stroke-width: 1.75; stroke-opacity: 1; stroke: rgb(80, 80, 80); fill: none;"></path><path class="link" marker-end="" d="M554.6666666666666,517.5C644.6666666666666,517.5 644.6666666666666,357.5 734.6666666666666,357.5" style="stroke-width: 1.75; stroke-opacity: 1; stroke: rgb(80, 80, 80); fill: none;"></path><path class="link" marker-end="" d="M554.6666666666666,517.5C644.6666666666666,517.5 644.6666666666666,397.5 734.6666666666666,397.5" style="stroke-width: 1.75; stroke-opacity: 1; stroke: rgb(80, 80, 80); fill: none;"></path><path class="link" marker-end="" d="M554.6666666666666,517.5C644.6666666666666,517.5 644.6666666666666,437.5 734.6666666666666,437.5" style="stroke-width: 1.75; stroke-opacity: 1; stroke: rgb(80, 80, 80); fill: none;"></path><path class="link" marker-end="" d="M554.6666666666666,517.5C644.6666666666666,517.5 644.6666666666666,477.5 734.6666666666666,477.5" style="stroke-width: 1.75; stroke-opacity: 1; stroke: rgb(80, 80, 80); fill: none;"></path><path class="link" marker-end="" d="M554.6666666666666,517.5C644.6666666666666,517.5 644.6666666666666,517.5 734.6666666666666,517.5" style="stroke-width: 1.75; stroke-opacity: 1; stroke: rgb(80, 80, 80); fill: none;"></path><path class="link" marker-end="" d="M554.6666666666666,517.5C644.6666666666666,517.5 644.6666666666666,557.5 734.6666666666666,557.5" style="stroke-width: 1.75; stroke-opacity: 1; stroke: rgb(80, 80, 80); fill: none;"></path><path class="link" marker-end="" d="M554.6666666666666,557.5C644.6666666666666,557.5 644.6666666666666,117.5 734.6666666666666,117.5" style="stroke-width: 1.75; stroke-opacity: 1; stroke: rgb(80, 80, 80); fill: none;"></path><path class="link" marker-end="" d="M554.6666666666666,557.5C644.6666666666666,557.5 644.6666666666666,157.5 734.6666666666666,157.5" style="stroke-width: 1.75; stroke-opacity: 1; stroke: rgb(80, 80, 80); fill: none;"></path><path class="link" marker-end="" d="M554.6666666666666,557.5C644.6666666666666,557.5 644.6666666666666,197.5 734.6666666666666,197.5" style="stroke-width: 1.75; stroke-opacity: 1; stroke: rgb(80, 80, 80); fill: none;"></path><path class="link" marker-end="" d="M554.6666666666666,557.5C644.6666666666666,557.5 644.6666666666666,237.5 734.6666666666666,237.5" style="stroke-width: 1.75; stroke-opacity: 1; stroke: rgb(80, 80, 80); fill: none;"></path><path class="link" marker-end="" d="M554.6666666666666,557.5C644.6666666666666,557.5 644.6666666666666,277.5 734.6666666666666,277.5" style="stroke-width: 1.75; stroke-opacity: 1; stroke: rgb(80, 80, 80); fill: none;"></path><path class="link" marker-end="" d="M554.6666666666666,557.5C644.6666666666666,557.5 644.6666666666666,317.5 734.6666666666666,317.5" style="stroke-width: 1.75; stroke-opacity: 1; stroke: rgb(80, 80, 80); fill: none;"></path><path class="link" marker-end="" d="M554.6666666666666,557.5C644.6666666666666,557.5 644.6666666666666,357.5 734.6666666666666,357.5" style="stroke-width: 1.75; stroke-opacity: 1; stroke: rgb(80, 80, 80); fill: none;"></path><path class="link" marker-end="" d="M554.6666666666666,557.5C644.6666666666666,557.5 644.6666666666666,397.5 734.6666666666666,397.5" style="stroke-width: 1.75; stroke-opacity: 1; stroke: rgb(80, 80, 80); fill: none;"></path><path class="link" marker-end="" d="M554.6666666666666,557.5C644.6666666666666,557.5 644.6666666666666,437.5 734.6666666666666,437.5" style="stroke-width: 1.75; stroke-opacity: 1; stroke: rgb(80, 80, 80); fill: none;"></path><path class="link" marker-end="" d="M554.6666666666666,557.5C644.6666666666666,557.5 644.6666666666666,477.5 734.6666666666666,477.5" style="stroke-width: 1.75; stroke-opacity: 1; stroke: rgb(80, 80, 80); fill: none;"></path><path class="link" marker-end="" d="M554.6666666666666,557.5C644.6666666666666,557.5 644.6666666666666,517.5 734.6666666666666,517.5" style="stroke-width: 1.75; stroke-opacity: 1; stroke: rgb(80, 80, 80); fill: none;"></path><path class="link" marker-end="" d="M554.6666666666666,557.5C644.6666666666666,557.5 644.6666666666666,557.5 734.6666666666666,557.5" style="stroke-width: 1.75; stroke-opacity: 1; stroke: rgb(80, 80, 80); fill: none;"></path><path class="link" marker-end="" d="M554.6666666666666,597.5C644.6666666666666,597.5 644.6666666666666,117.5 734.6666666666666,117.5" style="stroke-width: 1.75; stroke-opacity: 1; stroke: rgb(80, 80, 80); fill: none;"></path><path class="link" marker-end="" d="M554.6666666666666,597.5C644.6666666666666,597.5 644.6666666666666,157.5 734.6666666666666,157.5" style="stroke-width: 1.75; stroke-opacity: 1; stroke: rgb(80, 80, 80); fill: none;"></path><path class="link" marker-end="" d="M554.6666666666666,597.5C644.6666666666666,597.5 644.6666666666666,197.5 734.6666666666666,197.5" style="stroke-width: 1.75; stroke-opacity: 1; stroke: rgb(80, 80, 80); fill: none;"></path><path class="link" marker-end="" d="M554.6666666666666,597.5C644.6666666666666,597.5 644.6666666666666,237.5 734.6666666666666,237.5" style="stroke-width: 1.75; stroke-opacity: 1; stroke: rgb(80, 80, 80); fill: none;"></path><path class="link" marker-end="" d="M554.6666666666666,597.5C644.6666666666666,597.5 644.6666666666666,277.5 734.6666666666666,277.5" style="stroke-width: 1.75; stroke-opacity: 1; stroke: rgb(80, 80, 80); fill: none;"></path><path class="link" marker-end="" d="M554.6666666666666,597.5C644.6666666666666,597.5 644.6666666666666,317.5 734.6666666666666,317.5" style="stroke-width: 1.75; stroke-opacity: 1; stroke: rgb(80, 80, 80); fill: none;"></path><path class="link" marker-end="" d="M554.6666666666666,597.5C644.6666666666666,597.5 644.6666666666666,357.5 734.6666666666666,357.5" style="stroke-width: 1.75; stroke-opacity: 1; stroke: rgb(80, 80, 80); fill: none;"></path><path class="link" marker-end="" d="M554.6666666666666,597.5C644.6666666666666,597.5 644.6666666666666,397.5 734.6666666666666,397.5" style="stroke-width: 1.75; stroke-opacity: 1; stroke: rgb(80, 80, 80); fill: none;"></path><path class="link" marker-end="" d="M554.6666666666666,597.5C644.6666666666666,597.5 644.6666666666666,437.5 734.6666666666666,437.5" style="stroke-width: 1.75; stroke-opacity: 1; stroke: rgb(80, 80, 80); fill: none;"></path><path class="link" marker-end="" d="M554.6666666666666,597.5C644.6666666666666,597.5 644.6666666666666,477.5 734.6666666666666,477.5" style="stroke-width: 1.75; stroke-opacity: 1; stroke: rgb(80, 80, 80); fill: none;"></path><path class="link" marker-end="" d="M554.6666666666666,597.5C644.6666666666666,597.5 644.6666666666666,517.5 734.6666666666666,517.5" style="stroke-width: 1.75; stroke-opacity: 1; stroke: rgb(80, 80, 80); fill: none;"></path><path class="link" marker-end="" d="M554.6666666666666,597.5C644.6666666666666,597.5 644.6666666666666,557.5 734.6666666666666,557.5" style="stroke-width: 1.75; stroke-opacity: 1; stroke: rgb(80, 80, 80); fill: none;"></path><path class="link" marker-end="" d="M554.6666666666666,637.5C644.6666666666666,637.5 644.6666666666666,117.5 734.6666666666666,117.5" style="stroke-width: 1.75; stroke-opacity: 1; stroke: rgb(80, 80, 80); fill: none;"></path><path class="link" marker-end="" d="M554.6666666666666,637.5C644.6666666666666,637.5 644.6666666666666,157.5 734.6666666666666,157.5" style="stroke-width: 1.75; stroke-opacity: 1; stroke: rgb(80, 80, 80); fill: none;"></path><path class="link" marker-end="" d="M554.6666666666666,637.5C644.6666666666666,637.5 644.6666666666666,197.5 734.6666666666666,197.5" style="stroke-width: 1.75; stroke-opacity: 1; stroke: rgb(80, 80, 80); fill: none;"></path><path class="link" marker-end="" d="M554.6666666666666,637.5C644.6666666666666,637.5 644.6666666666666,237.5 734.6666666666666,237.5" style="stroke-width: 1.75; stroke-opacity: 1; stroke: rgb(80, 80, 80); fill: none;"></path><path class="link" marker-end="" d="M554.6666666666666,637.5C644.6666666666666,637.5 644.6666666666666,277.5 734.6666666666666,277.5" style="stroke-width: 1.75; stroke-opacity: 1; stroke: rgb(80, 80, 80); fill: none;"></path><path class="link" marker-end="" d="M554.6666666666666,637.5C644.6666666666666,637.5 644.6666666666666,317.5 734.6666666666666,317.5" style="stroke-width: 1.75; stroke-opacity: 1; stroke: rgb(80, 80, 80); fill: none;"></path><path class="link" marker-end="" d="M554.6666666666666,637.5C644.6666666666666,637.5 644.6666666666666,357.5 734.6666666666666,357.5" style="stroke-width: 1.75; stroke-opacity: 1; stroke: rgb(80, 80, 80); fill: none;"></path><path class="link" marker-end="" d="M554.6666666666666,637.5C644.6666666666666,637.5 644.6666666666666,397.5 734.6666666666666,397.5" style="stroke-width: 1.75; stroke-opacity: 1; stroke: rgb(80, 80, 80); fill: none;"></path><path class="link" marker-end="" d="M554.6666666666666,637.5C644.6666666666666,637.5 644.6666666666666,437.5 734.6666666666666,437.5" style="stroke-width: 1.75; stroke-opacity: 1; stroke: rgb(80, 80, 80); fill: none;"></path><path class="link" marker-end="" d="M554.6666666666666,637.5C644.6666666666666,637.5 644.6666666666666,477.5 734.6666666666666,477.5" style="stroke-width: 1.75; stroke-opacity: 1; stroke: rgb(80, 80, 80); fill: none;"></path><path class="link" marker-end="" d="M554.6666666666666,637.5C644.6666666666666,637.5 644.6666666666666,517.5 734.6666666666666,517.5" style="stroke-width: 1.75; stroke-opacity: 1; stroke: rgb(80, 80, 80); fill: none;"></path><path class="link" marker-end="" d="M554.6666666666666,637.5C644.6666666666666,637.5 644.6666666666666,557.5 734.6666666666666,557.5" style="stroke-width: 1.75; stroke-opacity: 1; stroke: rgb(80, 80, 80); fill: none;"></path><path class="link" marker-end="" d="M734.6666666666666,117.5C824.6666666666666,117.5 824.6666666666666,157.5 914.6666666666666,157.5" style="stroke-width: 1.75; stroke-opacity: 1; stroke: rgb(80, 80, 80); fill: none;"></path><path class="link" marker-end="" d="M734.6666666666666,117.5C824.6666666666666,117.5 824.6666666666666,197.5 914.6666666666666,197.5" style="stroke-width: 1.75; stroke-opacity: 1; stroke: rgb(80, 80, 80); fill: none;"></path><path class="link" marker-end="" d="M734.6666666666666,117.5C824.6666666666666,117.5 824.6666666666666,237.5 914.6666666666666,237.5" style="stroke-width: 1.75; stroke-opacity: 1; stroke: rgb(80, 80, 80); fill: none;"></path><path class="link" marker-end="" d="M734.6666666666666,117.5C824.6666666666666,117.5 824.6666666666666,277.5 914.6666666666666,277.5" style="stroke-width: 1.75; stroke-opacity: 1; stroke: rgb(80, 80, 80); fill: none;"></path><path class="link" marker-end="" d="M734.6666666666666,117.5C824.6666666666666,117.5 824.6666666666666,317.5 914.6666666666666,317.5" style="stroke-width: 1.75; stroke-opacity: 1; stroke: rgb(80, 80, 80); fill: none;"></path><path class="link" marker-end="" d="M734.6666666666666,117.5C824.6666666666666,117.5 824.6666666666666,357.5 914.6666666666666,357.5" style="stroke-width: 1.75; stroke-opacity: 1; stroke: rgb(80, 80, 80); fill: none;"></path><path class="link" marker-end="" d="M734.6666666666666,117.5C824.6666666666666,117.5 824.6666666666666,397.5 914.6666666666666,397.5" style="stroke-width: 1.75; stroke-opacity: 1; stroke: rgb(80, 80, 80); fill: none;"></path><path class="link" marker-end="" d="M734.6666666666666,117.5C824.6666666666666,117.5 824.6666666666666,437.5 914.6666666666666,437.5" style="stroke-width: 1.75; stroke-opacity: 1; stroke: rgb(80, 80, 80); fill: none;"></path><path class="link" marker-end="" d="M734.6666666666666,117.5C824.6666666666666,117.5 824.6666666666666,477.5 914.6666666666666,477.5" style="stroke-width: 1.75; stroke-opacity: 1; stroke: rgb(80, 80, 80); fill: none;"></path><path class="link" marker-end="" d="M734.6666666666666,117.5C824.6666666666666,117.5 824.6666666666666,517.5 914.6666666666666,517.5" style="stroke-width: 1.75; stroke-opacity: 1; stroke: rgb(80, 80, 80); fill: none;"></path><path class="link" marker-end="" d="M734.6666666666666,157.5C824.6666666666666,157.5 824.6666666666666,157.5 914.6666666666666,157.5" style="stroke-width: 1.75; stroke-opacity: 1; stroke: rgb(80, 80, 80); fill: none;"></path><path class="link" marker-end="" d="M734.6666666666666,157.5C824.6666666666666,157.5 824.6666666666666,197.5 914.6666666666666,197.5" style="stroke-width: 1.75; stroke-opacity: 1; stroke: rgb(80, 80, 80); fill: none;"></path><path class="link" marker-end="" d="M734.6666666666666,157.5C824.6666666666666,157.5 824.6666666666666,237.5 914.6666666666666,237.5" style="stroke-width: 1.75; stroke-opacity: 1; stroke: rgb(80, 80, 80); fill: none;"></path><path class="link" marker-end="" d="M734.6666666666666,157.5C824.6666666666666,157.5 824.6666666666666,277.5 914.6666666666666,277.5" style="stroke-width: 1.75; stroke-opacity: 1; stroke: rgb(80, 80, 80); fill: none;"></path><path class="link" marker-end="" d="M734.6666666666666,157.5C824.6666666666666,157.5 824.6666666666666,317.5 914.6666666666666,317.5" style="stroke-width: 1.75; stroke-opacity: 1; stroke: rgb(80, 80, 80); fill: none;"></path><path class="link" marker-end="" d="M734.6666666666666,157.5C824.6666666666666,157.5 824.6666666666666,357.5 914.6666666666666,357.5" style="stroke-width: 1.75; stroke-opacity: 1; stroke: rgb(80, 80, 80); fill: none;"></path><path class="link" marker-end="" d="M734.6666666666666,157.5C824.6666666666666,157.5 824.6666666666666,397.5 914.6666666666666,397.5" style="stroke-width: 1.75; stroke-opacity: 1; stroke: rgb(80, 80, 80); fill: none;"></path><path class="link" marker-end="" d="M734.6666666666666,157.5C824.6666666666666,157.5 824.6666666666666,437.5 914.6666666666666,437.5" style="stroke-width: 1.75; stroke-opacity: 1; stroke: rgb(80, 80, 80); fill: none;"></path><path class="link" marker-end="" d="M734.6666666666666,157.5C824.6666666666666,157.5 824.6666666666666,477.5 914.6666666666666,477.5" style="stroke-width: 1.75; stroke-opacity: 1; stroke: rgb(80, 80, 80); fill: none;"></path><path class="link" marker-end="" d="M734.6666666666666,157.5C824.6666666666666,157.5 824.6666666666666,517.5 914.6666666666666,517.5" style="stroke-width: 1.75; stroke-opacity: 1; stroke: rgb(80, 80, 80); fill: none;"></path><path class="link" marker-end="" d="M734.6666666666666,197.5C824.6666666666666,197.5 824.6666666666666,157.5 914.6666666666666,157.5" style="stroke-width: 1.75; stroke-opacity: 1; stroke: rgb(80, 80, 80); fill: none;"></path><path class="link" marker-end="" d="M734.6666666666666,197.5C824.6666666666666,197.5 824.6666666666666,197.5 914.6666666666666,197.5" style="stroke-width: 1.75; stroke-opacity: 1; stroke: rgb(80, 80, 80); fill: none;"></path><path class="link" marker-end="" d="M734.6666666666666,197.5C824.6666666666666,197.5 824.6666666666666,237.5 914.6666666666666,237.5" style="stroke-width: 1.75; stroke-opacity: 1; stroke: rgb(80, 80, 80); fill: none;"></path><path class="link" marker-end="" d="M734.6666666666666,197.5C824.6666666666666,197.5 824.6666666666666,277.5 914.6666666666666,277.5" style="stroke-width: 1.75; stroke-opacity: 1; stroke: rgb(80, 80, 80); fill: none;"></path><path class="link" marker-end="" d="M734.6666666666666,197.5C824.6666666666666,197.5 824.6666666666666,317.5 914.6666666666666,317.5" style="stroke-width: 1.75; stroke-opacity: 1; stroke: rgb(80, 80, 80); fill: none;"></path><path class="link" marker-end="" d="M734.6666666666666,197.5C824.6666666666666,197.5 824.6666666666666,357.5 914.6666666666666,357.5" style="stroke-width: 1.75; stroke-opacity: 1; stroke: rgb(80, 80, 80); fill: none;"></path><path class="link" marker-end="" d="M734.6666666666666,197.5C824.6666666666666,197.5 824.6666666666666,397.5 914.6666666666666,397.5" style="stroke-width: 1.75; stroke-opacity: 1; stroke: rgb(80, 80, 80); fill: none;"></path><path class="link" marker-end="" d="M734.6666666666666,197.5C824.6666666666666,197.5 824.6666666666666,437.5 914.6666666666666,437.5" style="stroke-width: 1.75; stroke-opacity: 1; stroke: rgb(80, 80, 80); fill: none;"></path><path class="link" marker-end="" d="M734.6666666666666,197.5C824.6666666666666,197.5 824.6666666666666,477.5 914.6666666666666,477.5" style="stroke-width: 1.75; stroke-opacity: 1; stroke: rgb(80, 80, 80); fill: none;"></path><path class="link" marker-end="" d="M734.6666666666666,197.5C824.6666666666666,197.5 824.6666666666666,517.5 914.6666666666666,517.5" style="stroke-width: 1.75; stroke-opacity: 1; stroke: rgb(80, 80, 80); fill: none;"></path><path class="link" marker-end="" d="M734.6666666666666,237.5C824.6666666666666,237.5 824.6666666666666,157.5 914.6666666666666,157.5" style="stroke-width: 1.75; stroke-opacity: 1; stroke: rgb(80, 80, 80); fill: none;"></path><path class="link" marker-end="" d="M734.6666666666666,237.5C824.6666666666666,237.5 824.6666666666666,197.5 914.6666666666666,197.5" style="stroke-width: 1.75; stroke-opacity: 1; stroke: rgb(80, 80, 80); fill: none;"></path><path class="link" marker-end="" d="M734.6666666666666,237.5C824.6666666666666,237.5 824.6666666666666,237.5 914.6666666666666,237.5" style="stroke-width: 1.75; stroke-opacity: 1; stroke: rgb(80, 80, 80); fill: none;"></path><path class="link" marker-end="" d="M734.6666666666666,237.5C824.6666666666666,237.5 824.6666666666666,277.5 914.6666666666666,277.5" style="stroke-width: 1.75; stroke-opacity: 1; stroke: rgb(80, 80, 80); fill: none;"></path><path class="link" marker-end="" d="M734.6666666666666,237.5C824.6666666666666,237.5 824.6666666666666,317.5 914.6666666666666,317.5" style="stroke-width: 1.75; stroke-opacity: 1; stroke: rgb(80, 80, 80); fill: none;"></path><path class="link" marker-end="" d="M734.6666666666666,237.5C824.6666666666666,237.5 824.6666666666666,357.5 914.6666666666666,357.5" style="stroke-width: 1.75; stroke-opacity: 1; stroke: rgb(80, 80, 80); fill: none;"></path><path class="link" marker-end="" d="M734.6666666666666,237.5C824.6666666666666,237.5 824.6666666666666,397.5 914.6666666666666,397.5" style="stroke-width: 1.75; stroke-opacity: 1; stroke: rgb(80, 80, 80); fill: none;"></path><path class="link" marker-end="" d="M734.6666666666666,237.5C824.6666666666666,237.5 824.6666666666666,437.5 914.6666666666666,437.5" style="stroke-width: 1.75; stroke-opacity: 1; stroke: rgb(80, 80, 80); fill: none;"></path><path class="link" marker-end="" d="M734.6666666666666,237.5C824.6666666666666,237.5 824.6666666666666,477.5 914.6666666666666,477.5" style="stroke-width: 1.75; stroke-opacity: 1; stroke: rgb(80, 80, 80); fill: none;"></path><path class="link" marker-end="" d="M734.6666666666666,237.5C824.6666666666666,237.5 824.6666666666666,517.5 914.6666666666666,517.5" style="stroke-width: 1.75; stroke-opacity: 1; stroke: rgb(80, 80, 80); fill: none;"></path><path class="link" marker-end="" d="M734.6666666666666,277.5C824.6666666666666,277.5 824.6666666666666,157.5 914.6666666666666,157.5" style="stroke-width: 1.75; stroke-opacity: 1; stroke: rgb(80, 80, 80); fill: none;"></path><path class="link" marker-end="" d="M734.6666666666666,277.5C824.6666666666666,277.5 824.6666666666666,197.5 914.6666666666666,197.5" style="stroke-width: 1.75; stroke-opacity: 1; stroke: rgb(80, 80, 80); fill: none;"></path><path class="link" marker-end="" d="M734.6666666666666,277.5C824.6666666666666,277.5 824.6666666666666,237.5 914.6666666666666,237.5" style="stroke-width: 1.75; stroke-opacity: 1; stroke: rgb(80, 80, 80); fill: none;"></path><path class="link" marker-end="" d="M734.6666666666666,277.5C824.6666666666666,277.5 824.6666666666666,277.5 914.6666666666666,277.5" style="stroke-width: 1.75; stroke-opacity: 1; stroke: rgb(80, 80, 80); fill: none;"></path><path class="link" marker-end="" d="M734.6666666666666,277.5C824.6666666666666,277.5 824.6666666666666,317.5 914.6666666666666,317.5" style="stroke-width: 1.75; stroke-opacity: 1; stroke: rgb(80, 80, 80); fill: none;"></path><path class="link" marker-end="" d="M734.6666666666666,277.5C824.6666666666666,277.5 824.6666666666666,357.5 914.6666666666666,357.5" style="stroke-width: 1.75; stroke-opacity: 1; stroke: rgb(80, 80, 80); fill: none;"></path><path class="link" marker-end="" d="M734.6666666666666,277.5C824.6666666666666,277.5 824.6666666666666,397.5 914.6666666666666,397.5" style="stroke-width: 1.75; stroke-opacity: 1; stroke: rgb(80, 80, 80); fill: none;"></path><path class="link" marker-end="" d="M734.6666666666666,277.5C824.6666666666666,277.5 824.6666666666666,437.5 914.6666666666666,437.5" style="stroke-width: 1.75; stroke-opacity: 1; stroke: rgb(80, 80, 80); fill: none;"></path><path class="link" marker-end="" d="M734.6666666666666,277.5C824.6666666666666,277.5 824.6666666666666,477.5 914.6666666666666,477.5" style="stroke-width: 1.75; stroke-opacity: 1; stroke: rgb(80, 80, 80); fill: none;"></path><path class="link" marker-end="" d="M734.6666666666666,277.5C824.6666666666666,277.5 824.6666666666666,517.5 914.6666666666666,517.5" style="stroke-width: 1.75; stroke-opacity: 1; stroke: rgb(80, 80, 80); fill: none;"></path><path class="link" marker-end="" d="M734.6666666666666,317.5C824.6666666666666,317.5 824.6666666666666,157.5 914.6666666666666,157.5" style="stroke-width: 1.75; stroke-opacity: 1; stroke: rgb(80, 80, 80); fill: none;"></path><path class="link" marker-end="" d="M734.6666666666666,317.5C824.6666666666666,317.5 824.6666666666666,197.5 914.6666666666666,197.5" style="stroke-width: 1.75; stroke-opacity: 1; stroke: rgb(80, 80, 80); fill: none;"></path><path class="link" marker-end="" d="M734.6666666666666,317.5C824.6666666666666,317.5 824.6666666666666,237.5 914.6666666666666,237.5" style="stroke-width: 1.75; stroke-opacity: 1; stroke: rgb(80, 80, 80); fill: none;"></path><path class="link" marker-end="" d="M734.6666666666666,317.5C824.6666666666666,317.5 824.6666666666666,277.5 914.6666666666666,277.5" style="stroke-width: 1.75; stroke-opacity: 1; stroke: rgb(80, 80, 80); fill: none;"></path><path class="link" marker-end="" d="M734.6666666666666,317.5C824.6666666666666,317.5 824.6666666666666,317.5 914.6666666666666,317.5" style="stroke-width: 1.75; stroke-opacity: 1; stroke: rgb(80, 80, 80); fill: none;"></path><path class="link" marker-end="" d="M734.6666666666666,317.5C824.6666666666666,317.5 824.6666666666666,357.5 914.6666666666666,357.5" style="stroke-width: 1.75; stroke-opacity: 1; stroke: rgb(80, 80, 80); fill: none;"></path><path class="link" marker-end="" d="M734.6666666666666,317.5C824.6666666666666,317.5 824.6666666666666,397.5 914.6666666666666,397.5" style="stroke-width: 1.75; stroke-opacity: 1; stroke: rgb(80, 80, 80); fill: none;"></path><path class="link" marker-end="" d="M734.6666666666666,317.5C824.6666666666666,317.5 824.6666666666666,437.5 914.6666666666666,437.5" style="stroke-width: 1.75; stroke-opacity: 1; stroke: rgb(80, 80, 80); fill: none;"></path><path class="link" marker-end="" d="M734.6666666666666,317.5C824.6666666666666,317.5 824.6666666666666,477.5 914.6666666666666,477.5" style="stroke-width: 1.75; stroke-opacity: 1; stroke: rgb(80, 80, 80); fill: none;"></path><path class="link" marker-end="" d="M734.6666666666666,317.5C824.6666666666666,317.5 824.6666666666666,517.5 914.6666666666666,517.5" style="stroke-width: 1.75; stroke-opacity: 1; stroke: rgb(80, 80, 80); fill: none;"></path><path class="link" marker-end="" d="M734.6666666666666,357.5C824.6666666666666,357.5 824.6666666666666,157.5 914.6666666666666,157.5" style="stroke-width: 1.75; stroke-opacity: 1; stroke: rgb(80, 80, 80); fill: none;"></path><path class="link" marker-end="" d="M734.6666666666666,357.5C824.6666666666666,357.5 824.6666666666666,197.5 914.6666666666666,197.5" style="stroke-width: 1.75; stroke-opacity: 1; stroke: rgb(80, 80, 80); fill: none;"></path><path class="link" marker-end="" d="M734.6666666666666,357.5C824.6666666666666,357.5 824.6666666666666,237.5 914.6666666666666,237.5" style="stroke-width: 1.75; stroke-opacity: 1; stroke: rgb(80, 80, 80); fill: none;"></path><path class="link" marker-end="" d="M734.6666666666666,357.5C824.6666666666666,357.5 824.6666666666666,277.5 914.6666666666666,277.5" style="stroke-width: 1.75; stroke-opacity: 1; stroke: rgb(80, 80, 80); fill: none;"></path><path class="link" marker-end="" d="M734.6666666666666,357.5C824.6666666666666,357.5 824.6666666666666,317.5 914.6666666666666,317.5" style="stroke-width: 1.75; stroke-opacity: 1; stroke: rgb(80, 80, 80); fill: none;"></path><path class="link" marker-end="" d="M734.6666666666666,357.5C824.6666666666666,357.5 824.6666666666666,357.5 914.6666666666666,357.5" style="stroke-width: 1.75; stroke-opacity: 1; stroke: rgb(80, 80, 80); fill: none;"></path><path class="link" marker-end="" d="M734.6666666666666,357.5C824.6666666666666,357.5 824.6666666666666,397.5 914.6666666666666,397.5" style="stroke-width: 1.75; stroke-opacity: 1; stroke: rgb(80, 80, 80); fill: none;"></path><path class="link" marker-end="" d="M734.6666666666666,357.5C824.6666666666666,357.5 824.6666666666666,437.5 914.6666666666666,437.5" style="stroke-width: 1.75; stroke-opacity: 1; stroke: rgb(80, 80, 80); fill: none;"></path><path class="link" marker-end="" d="M734.6666666666666,357.5C824.6666666666666,357.5 824.6666666666666,477.5 914.6666666666666,477.5" style="stroke-width: 1.75; stroke-opacity: 1; stroke: rgb(80, 80, 80); fill: none;"></path><path class="link" marker-end="" d="M734.6666666666666,357.5C824.6666666666666,357.5 824.6666666666666,517.5 914.6666666666666,517.5" style="stroke-width: 1.75; stroke-opacity: 1; stroke: rgb(80, 80, 80); fill: none;"></path><path class="link" marker-end="" d="M734.6666666666666,397.5C824.6666666666666,397.5 824.6666666666666,157.5 914.6666666666666,157.5" style="stroke-width: 1.75; stroke-opacity: 1; stroke: rgb(80, 80, 80); fill: none;"></path><path class="link" marker-end="" d="M734.6666666666666,397.5C824.6666666666666,397.5 824.6666666666666,197.5 914.6666666666666,197.5" style="stroke-width: 1.75; stroke-opacity: 1; stroke: rgb(80, 80, 80); fill: none;"></path><path class="link" marker-end="" d="M734.6666666666666,397.5C824.6666666666666,397.5 824.6666666666666,237.5 914.6666666666666,237.5" style="stroke-width: 1.75; stroke-opacity: 1; stroke: rgb(80, 80, 80); fill: none;"></path><path class="link" marker-end="" d="M734.6666666666666,397.5C824.6666666666666,397.5 824.6666666666666,277.5 914.6666666666666,277.5" style="stroke-width: 1.75; stroke-opacity: 1; stroke: rgb(80, 80, 80); fill: none;"></path><path class="link" marker-end="" d="M734.6666666666666,397.5C824.6666666666666,397.5 824.6666666666666,317.5 914.6666666666666,317.5" style="stroke-width: 1.75; stroke-opacity: 1; stroke: rgb(80, 80, 80); fill: none;"></path><path class="link" marker-end="" d="M734.6666666666666,397.5C824.6666666666666,397.5 824.6666666666666,357.5 914.6666666666666,357.5" style="stroke-width: 1.75; stroke-opacity: 1; stroke: rgb(80, 80, 80); fill: none;"></path><path class="link" marker-end="" d="M734.6666666666666,397.5C824.6666666666666,397.5 824.6666666666666,397.5 914.6666666666666,397.5" style="stroke-width: 1.75; stroke-opacity: 1; stroke: rgb(80, 80, 80); fill: none;"></path><path class="link" marker-end="" d="M734.6666666666666,397.5C824.6666666666666,397.5 824.6666666666666,437.5 914.6666666666666,437.5" style="stroke-width: 1.75; stroke-opacity: 1; stroke: rgb(80, 80, 80); fill: none;"></path><path class="link" marker-end="" d="M734.6666666666666,397.5C824.6666666666666,397.5 824.6666666666666,477.5 914.6666666666666,477.5" style="stroke-width: 1.75; stroke-opacity: 1; stroke: rgb(80, 80, 80); fill: none;"></path><path class="link" marker-end="" d="M734.6666666666666,397.5C824.6666666666666,397.5 824.6666666666666,517.5 914.6666666666666,517.5" style="stroke-width: 1.75; stroke-opacity: 1; stroke: rgb(80, 80, 80); fill: none;"></path><path class="link" marker-end="" d="M734.6666666666666,437.5C824.6666666666666,437.5 824.6666666666666,157.5 914.6666666666666,157.5" style="stroke-width: 1.75; stroke-opacity: 1; stroke: rgb(80, 80, 80); fill: none;"></path><path class="link" marker-end="" d="M734.6666666666666,437.5C824.6666666666666,437.5 824.6666666666666,197.5 914.6666666666666,197.5" style="stroke-width: 1.75; stroke-opacity: 1; stroke: rgb(80, 80, 80); fill: none;"></path><path class="link" marker-end="" d="M734.6666666666666,437.5C824.6666666666666,437.5 824.6666666666666,237.5 914.6666666666666,237.5" style="stroke-width: 1.75; stroke-opacity: 1; stroke: rgb(80, 80, 80); fill: none;"></path><path class="link" marker-end="" d="M734.6666666666666,437.5C824.6666666666666,437.5 824.6666666666666,277.5 914.6666666666666,277.5" style="stroke-width: 1.75; stroke-opacity: 1; stroke: rgb(80, 80, 80); fill: none;"></path><path class="link" marker-end="" d="M734.6666666666666,437.5C824.6666666666666,437.5 824.6666666666666,317.5 914.6666666666666,317.5" style="stroke-width: 1.75; stroke-opacity: 1; stroke: rgb(80, 80, 80); fill: none;"></path><path class="link" marker-end="" d="M734.6666666666666,437.5C824.6666666666666,437.5 824.6666666666666,357.5 914.6666666666666,357.5" style="stroke-width: 1.75; stroke-opacity: 1; stroke: rgb(80, 80, 80); fill: none;"></path><path class="link" marker-end="" d="M734.6666666666666,437.5C824.6666666666666,437.5 824.6666666666666,397.5 914.6666666666666,397.5" style="stroke-width: 1.75; stroke-opacity: 1; stroke: rgb(80, 80, 80); fill: none;"></path><path class="link" marker-end="" d="M734.6666666666666,437.5C824.6666666666666,437.5 824.6666666666666,437.5 914.6666666666666,437.5" style="stroke-width: 1.75; stroke-opacity: 1; stroke: rgb(80, 80, 80); fill: none;"></path><path class="link" marker-end="" d="M734.6666666666666,437.5C824.6666666666666,437.5 824.6666666666666,477.5 914.6666666666666,477.5" style="stroke-width: 1.75; stroke-opacity: 1; stroke: rgb(80, 80, 80); fill: none;"></path><path class="link" marker-end="" d="M734.6666666666666,437.5C824.6666666666666,437.5 824.6666666666666,517.5 914.6666666666666,517.5" style="stroke-width: 1.75; stroke-opacity: 1; stroke: rgb(80, 80, 80); fill: none;"></path><path class="link" marker-end="" d="M734.6666666666666,477.5C824.6666666666666,477.5 824.6666666666666,157.5 914.6666666666666,157.5" style="stroke-width: 1.75; stroke-opacity: 1; stroke: rgb(80, 80, 80); fill: none;"></path><path class="link" marker-end="" d="M734.6666666666666,477.5C824.6666666666666,477.5 824.6666666666666,197.5 914.6666666666666,197.5" style="stroke-width: 1.75; stroke-opacity: 1; stroke: rgb(80, 80, 80); fill: none;"></path><path class="link" marker-end="" d="M734.6666666666666,477.5C824.6666666666666,477.5 824.6666666666666,237.5 914.6666666666666,237.5" style="stroke-width: 1.75; stroke-opacity: 1; stroke: rgb(80, 80, 80); fill: none;"></path><path class="link" marker-end="" d="M734.6666666666666,477.5C824.6666666666666,477.5 824.6666666666666,277.5 914.6666666666666,277.5" style="stroke-width: 1.75; stroke-opacity: 1; stroke: rgb(80, 80, 80); fill: none;"></path><path class="link" marker-end="" d="M734.6666666666666,477.5C824.6666666666666,477.5 824.6666666666666,317.5 914.6666666666666,317.5" style="stroke-width: 1.75; stroke-opacity: 1; stroke: rgb(80, 80, 80); fill: none;"></path><path class="link" marker-end="" d="M734.6666666666666,477.5C824.6666666666666,477.5 824.6666666666666,357.5 914.6666666666666,357.5" style="stroke-width: 1.75; stroke-opacity: 1; stroke: rgb(80, 80, 80); fill: none;"></path><path class="link" marker-end="" d="M734.6666666666666,477.5C824.6666666666666,477.5 824.6666666666666,397.5 914.6666666666666,397.5" style="stroke-width: 1.75; stroke-opacity: 1; stroke: rgb(80, 80, 80); fill: none;"></path><path class="link" marker-end="" d="M734.6666666666666,477.5C824.6666666666666,477.5 824.6666666666666,437.5 914.6666666666666,437.5" style="stroke-width: 1.75; stroke-opacity: 1; stroke: rgb(80, 80, 80); fill: none;"></path><path class="link" marker-end="" d="M734.6666666666666,477.5C824.6666666666666,477.5 824.6666666666666,477.5 914.6666666666666,477.5" style="stroke-width: 1.75; stroke-opacity: 1; stroke: rgb(80, 80, 80); fill: none;"></path><path class="link" marker-end="" d="M734.6666666666666,477.5C824.6666666666666,477.5 824.6666666666666,517.5 914.6666666666666,517.5" style="stroke-width: 1.75; stroke-opacity: 1; stroke: rgb(80, 80, 80); fill: none;"></path><path class="link" marker-end="" d="M734.6666666666666,517.5C824.6666666666666,517.5 824.6666666666666,157.5 914.6666666666666,157.5" style="stroke-width: 1.75; stroke-opacity: 1; stroke: rgb(80, 80, 80); fill: none;"></path><path class="link" marker-end="" d="M734.6666666666666,517.5C824.6666666666666,517.5 824.6666666666666,197.5 914.6666666666666,197.5" style="stroke-width: 1.75; stroke-opacity: 1; stroke: rgb(80, 80, 80); fill: none;"></path><path class="link" marker-end="" d="M734.6666666666666,517.5C824.6666666666666,517.5 824.6666666666666,237.5 914.6666666666666,237.5" style="stroke-width: 1.75; stroke-opacity: 1; stroke: rgb(80, 80, 80); fill: none;"></path><path class="link" marker-end="" d="M734.6666666666666,517.5C824.6666666666666,517.5 824.6666666666666,277.5 914.6666666666666,277.5" style="stroke-width: 1.75; stroke-opacity: 1; stroke: rgb(80, 80, 80); fill: none;"></path><path class="link" marker-end="" d="M734.6666666666666,517.5C824.6666666666666,517.5 824.6666666666666,317.5 914.6666666666666,317.5" style="stroke-width: 1.75; stroke-opacity: 1; stroke: rgb(80, 80, 80); fill: none;"></path><path class="link" marker-end="" d="M734.6666666666666,517.5C824.6666666666666,517.5 824.6666666666666,357.5 914.6666666666666,357.5" style="stroke-width: 1.75; stroke-opacity: 1; stroke: rgb(80, 80, 80); fill: none;"></path><path class="link" marker-end="" d="M734.6666666666666,517.5C824.6666666666666,517.5 824.6666666666666,397.5 914.6666666666666,397.5" style="stroke-width: 1.75; stroke-opacity: 1; stroke: rgb(80, 80, 80); fill: none;"></path><path class="link" marker-end="" d="M734.6666666666666,517.5C824.6666666666666,517.5 824.6666666666666,437.5 914.6666666666666,437.5" style="stroke-width: 1.75; stroke-opacity: 1; stroke: rgb(80, 80, 80); fill: none;"></path><path class="link" marker-end="" d="M734.6666666666666,517.5C824.6666666666666,517.5 824.6666666666666,477.5 914.6666666666666,477.5" style="stroke-width: 1.75; stroke-opacity: 1; stroke: rgb(80, 80, 80); fill: none;"></path><path class="link" marker-end="" d="M734.6666666666666,517.5C824.6666666666666,517.5 824.6666666666666,517.5 914.6666666666666,517.5" style="stroke-width: 1.75; stroke-opacity: 1; stroke: rgb(80, 80, 80); fill: none;"></path><path class="link" marker-end="" d="M734.6666666666666,557.5C824.6666666666666,557.5 824.6666666666666,157.5 914.6666666666666,157.5" style="stroke-width: 1.75; stroke-opacity: 1; stroke: rgb(80, 80, 80); fill: none;"></path><path class="link" marker-end="" d="M734.6666666666666,557.5C824.6666666666666,557.5 824.6666666666666,197.5 914.6666666666666,197.5" style="stroke-width: 1.75; stroke-opacity: 1; stroke: rgb(80, 80, 80); fill: none;"></path><path class="link" marker-end="" d="M734.6666666666666,557.5C824.6666666666666,557.5 824.6666666666666,237.5 914.6666666666666,237.5" style="stroke-width: 1.75; stroke-opacity: 1; stroke: rgb(80, 80, 80); fill: none;"></path><path class="link" marker-end="" d="M734.6666666666666,557.5C824.6666666666666,557.5 824.6666666666666,277.5 914.6666666666666,277.5" style="stroke-width: 1.75; stroke-opacity: 1; stroke: rgb(80, 80, 80); fill: none;"></path><path class="link" marker-end="" d="M734.6666666666666,557.5C824.6666666666666,557.5 824.6666666666666,317.5 914.6666666666666,317.5" style="stroke-width: 1.75; stroke-opacity: 1; stroke: rgb(80, 80, 80); fill: none;"></path><path class="link" marker-end="" d="M734.6666666666666,557.5C824.6666666666666,557.5 824.6666666666666,357.5 914.6666666666666,357.5" style="stroke-width: 1.75; stroke-opacity: 1; stroke: rgb(80, 80, 80); fill: none;"></path><path class="link" marker-end="" d="M734.6666666666666,557.5C824.6666666666666,557.5 824.6666666666666,397.5 914.6666666666666,397.5" style="stroke-width: 1.75; stroke-opacity: 1; stroke: rgb(80, 80, 80); fill: none;"></path><path class="link" marker-end="" d="M734.6666666666666,557.5C824.6666666666666,557.5 824.6666666666666,437.5 914.6666666666666,437.5" style="stroke-width: 1.75; stroke-opacity: 1; stroke: rgb(80, 80, 80); fill: none;"></path><path class="link" marker-end="" d="M734.6666666666666,557.5C824.6666666666666,557.5 824.6666666666666,477.5 914.6666666666666,477.5" style="stroke-width: 1.75; stroke-opacity: 1; stroke: rgb(80, 80, 80); fill: none;"></path><path class="link" marker-end="" d="M734.6666666666666,557.5C824.6666666666666,557.5 824.6666666666666,517.5 914.6666666666666,517.5" style="stroke-width: 1.75; stroke-opacity: 1; stroke: rgb(80, 80, 80); fill: none;"></path><path class="link" marker-end="" d="M914.6666666666666,157.5C1004.6666666666667,157.5 1004.6666666666667,337.5 1094.6666666666667,337.5" style="stroke-width: 1.75; stroke-opacity: 1; stroke: rgb(80, 80, 80); fill: none;"></path><path class="link" marker-end="" d="M914.6666666666666,197.5C1004.6666666666667,197.5 1004.6666666666667,337.5 1094.6666666666667,337.5" style="stroke-width: 1.75; stroke-opacity: 1; stroke: rgb(80, 80, 80); fill: none;"></path><path class="link" marker-end="" d="M914.6666666666666,237.5C1004.6666666666667,237.5 1004.6666666666667,337.5 1094.6666666666667,337.5" style="stroke-width: 1.75; stroke-opacity: 1; stroke: rgb(80, 80, 80); fill: none;"></path><path class="link" marker-end="" d="M914.6666666666666,277.5C1004.6666666666667,277.5 1004.6666666666667,337.5 1094.6666666666667,337.5" style="stroke-width: 1.75; stroke-opacity: 1; stroke: rgb(80, 80, 80); fill: none;"></path><path class="link" marker-end="" d="M914.6666666666666,317.5C1004.6666666666667,317.5 1004.6666666666667,337.5 1094.6666666666667,337.5" style="stroke-width: 1.75; stroke-opacity: 1; stroke: rgb(80, 80, 80); fill: none;"></path><path class="link" marker-end="" d="M914.6666666666666,357.5C1004.6666666666667,357.5 1004.6666666666667,337.5 1094.6666666666667,337.5" style="stroke-width: 1.75; stroke-opacity: 1; stroke: rgb(80, 80, 80); fill: none;"></path><path class="link" marker-end="" d="M914.6666666666666,397.5C1004.6666666666667,397.5 1004.6666666666667,337.5 1094.6666666666667,337.5" style="stroke-width: 1.75; stroke-opacity: 1; stroke: rgb(80, 80, 80); fill: none;"></path><path class="link" marker-end="" d="M914.6666666666666,437.5C1004.6666666666667,437.5 1004.6666666666667,337.5 1094.6666666666667,337.5" style="stroke-width: 1.75; stroke-opacity: 1; stroke: rgb(80, 80, 80); fill: none;"></path><path class="link" marker-end="" d="M914.6666666666666,477.5C1004.6666666666667,477.5 1004.6666666666667,337.5 1094.6666666666667,337.5" style="stroke-width: 1.75; stroke-opacity: 1; stroke: rgb(80, 80, 80); fill: none;"></path><path class="link" marker-end="" d="M914.6666666666666,517.5C1004.6666666666667,517.5 1004.6666666666667,337.5 1094.6666666666667,337.5" style="stroke-width: 1.75; stroke-opacity: 1; stroke: rgb(80, 80, 80); fill: none;"></path><circle r="10" class="node" id="0_0" cx="554.6666666666666" cy="37.5" style="fill: rgb(255, 255, 255); stroke: rgb(51, 51, 51);"></circle><circle r="10" class="node" id="0_1" cx="554.6666666666666" cy="77.5" style="fill: rgb(255, 255, 255); stroke: rgb(51, 51, 51);"></circle><circle r="10" class="node" id="0_2" cx="554.6666666666666" cy="117.5" style="fill: rgb(255, 255, 255); stroke: rgb(51, 51, 51);"></circle><circle r="10" class="node" id="0_3" cx="554.6666666666666" cy="157.5" style="fill: rgb(255, 255, 255); stroke: rgb(51, 51, 51);"></circle><circle r="10" class="node" id="0_4" cx="554.6666666666666" cy="197.5" style="fill: rgb(255, 255, 255); stroke: rgb(51, 51, 51);"></circle><circle r="10" class="node" id="0_5" cx="554.6666666666666" cy="237.5" style="fill: rgb(255, 255, 255); stroke: rgb(51, 51, 51);"></circle><circle r="10" class="node" id="0_6" cx="554.6666666666666" cy="277.5" style="fill: rgb(255, 255, 255); stroke: rgb(51, 51, 51);"></circle><circle r="10" class="node" id="0_7" cx="554.6666666666666" cy="317.5" style="fill: rgb(255, 255, 255); stroke: rgb(51, 51, 51);"></circle><circle r="10" class="node" id="0_8" cx="554.6666666666666" cy="357.5" style="fill: rgb(255, 255, 255); stroke: rgb(51, 51, 51);"></circle><circle r="10" class="node" id="0_9" cx="554.6666666666666" cy="397.5" style="fill: rgb(255, 255, 255); stroke: rgb(51, 51, 51);"></circle><circle r="10" class="node" id="0_10" cx="554.6666666666666" cy="437.5" style="fill: rgb(255, 255, 255); stroke: rgb(51, 51, 51);"></circle><circle r="10" class="node" id="0_11" cx="554.6666666666666" cy="477.5" style="fill: rgb(255, 255, 255); stroke: rgb(51, 51, 51);"></circle><circle r="10" class="node" id="0_12" cx="554.6666666666666" cy="517.5" style="fill: rgb(255, 255, 255); stroke: rgb(51, 51, 51);"></circle><circle r="10" class="node" id="0_13" cx="554.6666666666666" cy="557.5" style="fill: rgb(255, 255, 255); stroke: rgb(51, 51, 51);"></circle><circle r="10" class="node" id="0_14" cx="554.6666666666666" cy="597.5" style="fill: rgb(255, 255, 255); stroke: rgb(51, 51, 51);"></circle><circle r="10" class="node" id="0_15" cx="554.6666666666666" cy="637.5" style="fill: rgb(255, 255, 255); stroke: rgb(51, 51, 51);"></circle><circle r="10" class="node" id="1_0" cx="734.6666666666666" cy="117.5" style="fill: rgb(255, 255, 255); stroke: rgb(51, 51, 51);"></circle><circle r="10" class="node" id="1_1" cx="734.6666666666666" cy="157.5" style="fill: rgb(255, 255, 255); stroke: rgb(51, 51, 51);"></circle><circle r="10" class="node" id="1_2" cx="734.6666666666666" cy="197.5" style="fill: rgb(255, 255, 255); stroke: rgb(51, 51, 51);"></circle><circle r="10" class="node" id="1_3" cx="734.6666666666666" cy="237.5" style="fill: rgb(255, 255, 255); stroke: rgb(51, 51, 51);"></circle><circle r="10" class="node" id="1_4" cx="734.6666666666666" cy="277.5" style="fill: rgb(255, 255, 255); stroke: rgb(51, 51, 51);"></circle><circle r="10" class="node" id="1_5" cx="734.6666666666666" cy="317.5" style="fill: rgb(255, 255, 255); stroke: rgb(51, 51, 51);"></circle><circle r="10" class="node" id="1_6" cx="734.6666666666666" cy="357.5" style="fill: rgb(255, 255, 255); stroke: rgb(51, 51, 51);"></circle><circle r="10" class="node" id="1_7" cx="734.6666666666666" cy="397.5" style="fill: rgb(255, 255, 255); stroke: rgb(51, 51, 51);"></circle><circle r="10" class="node" id="1_8" cx="734.6666666666666" cy="437.5" style="fill: rgb(255, 255, 255); stroke: rgb(51, 51, 51);"></circle><circle r="10" class="node" id="1_9" cx="734.6666666666666" cy="477.5" style="fill: rgb(255, 255, 255); stroke: rgb(51, 51, 51);"></circle><circle r="10" class="node" id="1_10" cx="734.6666666666666" cy="517.5" style="fill: rgb(255, 255, 255); stroke: rgb(51, 51, 51);"></circle><circle r="10" class="node" id="1_11" cx="734.6666666666666" cy="557.5" style="fill: rgb(255, 255, 255); stroke: rgb(51, 51, 51);"></circle><circle r="10" class="node" id="2_0" cx="914.6666666666666" cy="157.5" style="fill: rgb(255, 255, 255); stroke: rgb(51, 51, 51);"></circle><circle r="10" class="node" id="2_1" cx="914.6666666666666" cy="197.5" style="fill: rgb(255, 255, 255); stroke: rgb(51, 51, 51);"></circle><circle r="10" class="node" id="2_2" cx="914.6666666666666" cy="237.5" style="fill: rgb(255, 255, 255); stroke: rgb(51, 51, 51);"></circle><circle r="10" class="node" id="2_3" cx="914.6666666666666" cy="277.5" style="fill: rgb(255, 255, 255); stroke: rgb(51, 51, 51);"></circle><circle r="10" class="node" id="2_4" cx="914.6666666666666" cy="317.5" style="fill: rgb(255, 255, 255); stroke: rgb(51, 51, 51);"></circle><circle r="10" class="node" id="2_5" cx="914.6666666666666" cy="357.5" style="fill: rgb(255, 255, 255); stroke: rgb(51, 51, 51);"></circle><circle r="10" class="node" id="2_6" cx="914.6666666666666" cy="397.5" style="fill: rgb(255, 255, 255); stroke: rgb(51, 51, 51);"></circle><circle r="10" class="node" id="2_7" cx="914.6666666666666" cy="437.5" style="fill: rgb(255, 255, 255); stroke: rgb(51, 51, 51);"></circle><circle r="10" class="node" id="2_8" cx="914.6666666666666" cy="477.5" style="fill: rgb(255, 255, 255); stroke: rgb(51, 51, 51);"></circle><circle r="10" class="node" id="2_9" cx="914.6666666666666" cy="517.5" style="fill: rgb(255, 255, 255); stroke: rgb(51, 51, 51);"></circle><circle r="10" class="node" id="3_0" cx="1094.6666666666667" cy="337.5" style="fill: rgb(255, 255, 255); stroke: rgb(51, 51, 51);"></circle><text class="text" dy=".35em" x="519.6666666666666" y="677.5" style="font-size: 12px;">Input Layer  </text><text class="text" dy=".35em" x="699.6666666666666" y="677.5" style="font-size: 12px;">Hidden Layer  </text><text class="text" dy=".35em" x="879.6666666666666" y="677.5" style="font-size: 12px;">Hidden Layer  </text><text class="text" dy=".35em" x="1059.6666666666667" y="677.5" style="font-size: 12px;">Output Layer  </text></g><defs><marker id="arrow" viewBox="0 -5 10 10" markerWidth="7" markerHeight="7" orient="auto" refX="40"><path d="M0,-5L10,0L0,5" style="stroke: rgb(80, 80, 80); fill: none;"></path></marker></defs></svg>