<svg xmlns="http://www.w3.org/2000/svg" width="1536" height="695" style="cursor: move;"><g transform="translate(447.45168258384206,133.9649285053717) scale(0.5)"><path class="link" marker-end="" d="M198,260C363,260 363,-110.5 528,-110.5" style="stroke-width: 0.86; stroke-opacity: 1; stroke: rgb(18, 18, 18); fill: none;"></path><path class="link" marker-end="" d="M198,260C363,260 363,-43.5 528,-43.5" style="stroke-width: 0.86; stroke-opacity: 1; stroke: rgb(18, 18, 18); fill: none;"></path><path class="link" marker-end="" d="M198,260C363,260 363,23.5 528,23.5" style="stroke-width: 0.86; stroke-opacity: 1; stroke: rgb(18, 18, 18); fill: none;"></path><path class="link" marker-end="" d="M198,260C363,260 363,90.5 528,90.5" style="stroke-width: 0.86; stroke-opacity: 1; stroke: rgb(18, 18, 18); fill: none;"></path><path class="link" marker-end="" d="M198,260C363,260 363,157.5 528,157.5" style="stroke-width: 0.86; stroke-opacity: 1; stroke: rgb(18, 18, 18); fill: none;"></path><path class="link" marker-end="" d="M198,260C363,260 363,224.5 528,224.5" style="stroke-width: 0.86; stroke-opacity: 1; stroke: rgb(18, 18, 18); fill: none;"></path><path class="link" marker-end="" d="M198,260C363,260 363,291.5 528,291.5" style="stroke-width: 0.86; stroke-opacity: 1; stroke: rgb(18, 18, 18); fill: none;"></path><path class="link" marker-end="" d="M198,260C363,260 363,358.5 528,358.5" style="stroke-width: 0.86; stroke-opacity: 1; stroke: rgb(18, 18, 18); fill: none;"></path><path class="link" marker-end="" d="M198,260C363,260 363,425.5 528,425.5" style="stroke-width: 0.86; stroke-opacity: 1; stroke: rgb(18, 18, 18); fill: none;"></path><path class="link" marker-end="" d="M198,260C363,260 363,492.5 528,492.5" style="stroke-width: 0.86; stroke-opacity: 1; stroke: rgb(18, 18, 18); fill: none;"></path><path class="link" marker-end="" d="M198,260C363,260 363,559.5 528,559.5" style="stroke-width: 0.86; stroke-opacity: 1; stroke: rgb(18, 18, 18); fill: none;"></path><path class="link" marker-end="" d="M198,325C363,325 363,-110.5 528,-110.5" style="stroke-width: 0.86; stroke-opacity: 1; stroke: rgb(18, 18, 18); fill: none;"></path><path class="link" marker-end="" d="M198,325C363,325 363,-43.5 528,-43.5" style="stroke-width: 0.86; stroke-opacity: 1; stroke: rgb(18, 18, 18); fill: none;"></path><path class="link" marker-end="" d="M198,325C363,325 363,23.5 528,23.5" style="stroke-width: 0.86; stroke-opacity: 1; stroke: rgb(18, 18, 18); fill: none;"></path><path class="link" marker-end="" d="M198,325C363,325 363,90.5 528,90.5" style="stroke-width: 0.86; stroke-opacity: 1; stroke: rgb(18, 18, 18); fill: none;"></path><path class="link" marker-end="" d="M198,325C363,325 363,157.5 528,157.5" style="stroke-width: 0.86; stroke-opacity: 1; stroke: rgb(18, 18, 18); fill: none;"></path><path class="link" marker-end="" d="M198,325C363,325 363,224.5 528,224.5" style="stroke-width: 0.86; stroke-opacity: 1; stroke: rgb(18, 18, 18); fill: none;"></path><path class="link" marker-end="" d="M198,325C363,325 363,291.5 528,291.5" style="stroke-width: 0.86; stroke-opacity: 1; stroke: rgb(18, 18, 18); fill: none;"></path><path class="link" marker-end="" d="M198,325C363,325 363,358.5 528,358.5" style="stroke-width: 0.86; stroke-opacity: 1; stroke: rgb(18, 18, 18); fill: none;"></path><path class="link" marker-end="" d="M198,325C363,325 363,425.5 528,425.5" style="stroke-width: 0.86; stroke-opacity: 1; stroke: rgb(18, 18, 18); fill: none;"></path><path class="link" marker-end="" d="M198,325C363,325 363,492.5 528,492.5" style="stroke-width: 0.86; stroke-opacity: 1; stroke: rgb(18, 18, 18); fill: none;"></path><path class="link" marker-end="" d="M198,325C363,325 363,559.5 528,559.5" style="stroke-width: 0.86; stroke-opacity: 1; stroke: rgb(18, 18, 18); fill: none;"></path><path class="link" marker-end="" d="M198,390C363,390 363,-110.5 528,-110.5" style="stroke-width: 0.86; stroke-opacity: 1; stroke: rgb(18, 18, 18); fill: none;"></path><path class="link" marker-end="" d="M198,390C363,390 363,-43.5 528,-43.5" style="stroke-width: 0.86; stroke-opacity: 1; stroke: rgb(18, 18, 18); fill: none;"></path><path class="link" marker-end="" d="M198,390C363,390 363,23.5 528,23.5" style="stroke-width: 0.86; stroke-opacity: 1; stroke: rgb(18, 18, 18); fill: none;"></path><path class="link" marker-end="" d="M198,390C363,390 363,90.5 528,90.5" style="stroke-width: 0.86; stroke-opacity: 1; stroke: rgb(18, 18, 18); fill: none;"></path><path class="link" marker-end="" d="M198,390C363,390 363,157.5 528,157.5" style="stroke-width: 0.86; stroke-opacity: 1; stroke: rgb(18, 18, 18); fill: none;"></path><path class="link" marker-end="" d="M198,390C363,390 363,224.5 528,224.5" style="stroke-width: 0.86; stroke-opacity: 1; stroke: rgb(18, 18, 18); fill: none;"></path><path class="link" marker-end="" d="M198,390C363,390 363,291.5 528,291.5" style="stroke-width: 0.86; stroke-opacity: 1; stroke: rgb(18, 18, 18); fill: none;"></path><path class="link" marker-end="" d="M198,390C363,390 363,358.5 528,358.5" style="stroke-width: 0.86; stroke-opacity: 1; stroke: rgb(18, 18, 18); fill: none;"></path><path class="link" marker-end="" d="M198,390C363,390 363,425.5 528,425.5" style="stroke-width: 0.86; stroke-opacity: 1; stroke: rgb(18, 18, 18); fill: none;"></path><path class="link" marker-end="" d="M198,390C363,390 363,492.5 528,492.5" style="stroke-width: 0.86; stroke-opacity: 1; stroke: rgb(18, 18, 18); fill: none;"></path><path class="link" marker-end="" d="M198,390C363,390 363,559.5 528,559.5" style="stroke-width: 0.86; stroke-opacity: 1; stroke: rgb(18, 18, 18); fill: none;"></path><path class="link" marker-end="" d="M528,-177.5C693,-177.5 693,195 858,195" style="stroke-width: 0.86; stroke-opacity: 1; stroke: rgb(18, 18, 18); fill: none;"></path><path class="link" marker-end="" d="M528,-177.5C693,-177.5 693,260 858,260" style="stroke-width: 0.86; stroke-opacity: 1; stroke: rgb(18, 18, 18); fill: none;"></path><path class="link" marker-end="" d="M528,-177.5C693,-177.5 693,325 858,325" style="stroke-width: 0.86; stroke-opacity: 1; stroke: rgb(18, 18, 18); fill: none;"></path><path class="link" marker-end="" d="M528,-177.5C693,-177.5 693,390 858,390" style="stroke-width: 0.86; stroke-opacity: 1; stroke: rgb(18, 18, 18); fill: none;"></path><path class="link" marker-end="" d="M528,-177.5C693,-177.5 693,455 858,455" style="stroke-width: 0.86; stroke-opacity: 1; stroke: rgb(18, 18, 18); fill: none;"></path><path class="link" marker-end="" d="M528,-110.5C693,-110.5 693,195 858,195" style="stroke-width: 0.86; stroke-opacity: 1; stroke: rgb(18, 18, 18); fill: none;"></path><path class="link" marker-end="" d="M528,-110.5C693,-110.5 693,260 858,260" style="stroke-width: 0.86; stroke-opacity: 1; stroke: rgb(18, 18, 18); fill: none;"></path><path class="link" marker-end="" d="M528,-110.5C693,-110.5 693,325 858,325" style="stroke-width: 0.86; stroke-opacity: 1; stroke: rgb(18, 18, 18); fill: none;"></path><path class="link" marker-end="" d="M528,-110.5C693,-110.5 693,390 858,390" style="stroke-width: 0.86; stroke-opacity: 1; stroke: rgb(18, 18, 18); fill: none;"></path><path class="link" marker-end="" d="M528,-110.5C693,-110.5 693,455 858,455" style="stroke-width: 0.86; stroke-opacity: 1; stroke: rgb(18, 18, 18); fill: none;"></path><path class="link" marker-end="" d="M528,-43.5C693,-43.5 693,195 858,195" style="stroke-width: 0.86; stroke-opacity: 1; stroke: rgb(18, 18, 18); fill: none;"></path><path class="link" marker-end="" d="M528,-43.5C693,-43.5 693,260 858,260" style="stroke-width: 0.86; stroke-opacity: 1; stroke: rgb(18, 18, 18); fill: none;"></path><path class="link" marker-end="" d="M528,-43.5C693,-43.5 693,325 858,325" style="stroke-width: 0.86; stroke-opacity: 1; stroke: rgb(18, 18, 18); fill: none;"></path><path class="link" marker-end="" d="M528,-43.5C693,-43.5 693,390 858,390" style="stroke-width: 0.86; stroke-opacity: 1; stroke: rgb(18, 18, 18); fill: none;"></path><path class="link" marker-end="" d="M528,-43.5C693,-43.5 693,455 858,455" style="stroke-width: 0.86; stroke-opacity: 1; stroke: rgb(18, 18, 18); fill: none;"></path><path class="link" marker-end="" d="M528,23.5C693,23.5 693,195 858,195" style="stroke-width: 0.86; stroke-opacity: 1; stroke: rgb(18, 18, 18); fill: none;"></path><path class="link" marker-end="" d="M528,23.5C693,23.5 693,260 858,260" style="stroke-width: 0.86; stroke-opacity: 1; stroke: rgb(18, 18, 18); fill: none;"></path><path class="link" marker-end="" d="M528,23.5C693,23.5 693,325 858,325" style="stroke-width: 0.86; stroke-opacity: 1; stroke: rgb(18, 18, 18); fill: none;"></path><path class="link" marker-end="" d="M528,23.5C693,23.5 693,390 858,390" style="stroke-width: 0.86; stroke-opacity: 1; stroke: rgb(18, 18, 18); fill: none;"></path><path class="link" marker-end="" d="M528,23.5C693,23.5 693,455 858,455" style="stroke-width: 0.86; stroke-opacity: 1; stroke: rgb(18, 18, 18); fill: none;"></path><path class="link" marker-end="" d="M528,90.5C693,90.5 693,195 858,195" style="stroke-width: 0.86; stroke-opacity: 1; stroke: rgb(18, 18, 18); fill: none;"></path><path class="link" marker-end="" d="M528,90.5C693,90.5 693,260 858,260" style="stroke-width: 0.86; stroke-opacity: 1; stroke: rgb(18, 18, 18); fill: none;"></path><path class="link" marker-end="" d="M528,90.5C693,90.5 693,325 858,325" style="stroke-width: 0.86; stroke-opacity: 1; stroke: rgb(18, 18, 18); fill: none;"></path><path class="link" marker-end="" d="M528,90.5C693,90.5 693,390 858,390" style="stroke-width: 0.86; stroke-opacity: 1; stroke: rgb(18, 18, 18); fill: none;"></path><path class="link" marker-end="" d="M528,90.5C693,90.5 693,455 858,455" style="stroke-width: 0.86; stroke-opacity: 1; stroke: rgb(18, 18, 18); fill: none;"></path><path class="link" marker-end="" d="M528,157.5C693,157.5 693,195 858,195" style="stroke-width: 0.86; stroke-opacity: 1; stroke: rgb(18, 18, 18); fill: none;"></path><path class="link" marker-end="" d="M528,157.5C693,157.5 693,260 858,260" style="stroke-width: 0.86; stroke-opacity: 1; stroke: rgb(18, 18, 18); fill: none;"></path><path class="link" marker-end="" d="M528,157.5C693,157.5 693,325 858,325" style="stroke-width: 0.86; stroke-opacity: 1; stroke: rgb(18, 18, 18); fill: none;"></path><path class="link" marker-end="" d="M528,157.5C693,157.5 693,390 858,390" style="stroke-width: 0.86; stroke-opacity: 1; stroke: rgb(18, 18, 18); fill: none;"></path><path class="link" marker-end="" d="M528,157.5C693,157.5 693,455 858,455" style="stroke-width: 0.86; stroke-opacity: 1; stroke: rgb(18, 18, 18); fill: none;"></path><path class="link" marker-end="" d="M528,224.5C693,224.5 693,195 858,195" style="stroke-width: 0.86; stroke-opacity: 1; stroke: rgb(18, 18, 18); fill: none;"></path><path class="link" marker-end="" d="M528,224.5C693,224.5 693,260 858,260" style="stroke-width: 0.86; stroke-opacity: 1; stroke: rgb(18, 18, 18); fill: none;"></path><path class="link" marker-end="" d="M528,224.5C693,224.5 693,325 858,325" style="stroke-width: 0.86; stroke-opacity: 1; stroke: rgb(18, 18, 18); fill: none;"></path><path class="link" marker-end="" d="M528,224.5C693,224.5 693,390 858,390" style="stroke-width: 0.86; stroke-opacity: 1; stroke: rgb(18, 18, 18); fill: none;"></path><path class="link" marker-end="" d="M528,224.5C693,224.5 693,455 858,455" style="stroke-width: 0.86; stroke-opacity: 1; stroke: rgb(18, 18, 18); fill: none;"></path><path class="link" marker-end="" d="M528,291.5C693,291.5 693,195 858,195" style="stroke-width: 0.86; stroke-opacity: 1; stroke: rgb(18, 18, 18); fill: none;"></path><path class="link" marker-end="" d="M528,291.5C693,291.5 693,260 858,260" style="stroke-width: 0.86; stroke-opacity: 1; stroke: rgb(18, 18, 18); fill: none;"></path><path class="link" marker-end="" d="M528,291.5C693,291.5 693,325 858,325" style="stroke-width: 0.86; stroke-opacity: 1; stroke: rgb(18, 18, 18); fill: none;"></path><path class="link" marker-end="" d="M528,291.5C693,291.5 693,390 858,390" style="stroke-width: 0.86; stroke-opacity: 1; stroke: rgb(18, 18, 18); fill: none;"></path><path class="link" marker-end="" d="M528,291.5C693,291.5 693,455 858,455" style="stroke-width: 0.86; stroke-opacity: 1; stroke: rgb(18, 18, 18); fill: none;"></path><path class="link" marker-end="" d="M528,358.5C693,358.5 693,195 858,195" style="stroke-width: 0.86; stroke-opacity: 1; stroke: rgb(18, 18, 18); fill: none;"></path><path class="link" marker-end="" d="M528,358.5C693,358.5 693,260 858,260" style="stroke-width: 0.86; stroke-opacity: 1; stroke: rgb(18, 18, 18); fill: none;"></path><path class="link" marker-end="" d="M528,358.5C693,358.5 693,325 858,325" style="stroke-width: 0.86; stroke-opacity: 1; stroke: rgb(18, 18, 18); fill: none;"></path><path class="link" marker-end="" d="M528,358.5C693,358.5 693,390 858,390" style="stroke-width: 0.86; stroke-opacity: 1; stroke: rgb(18, 18, 18); fill: none;"></path><path class="link" marker-end="" d="M528,358.5C693,358.5 693,455 858,455" style="stroke-width: 0.86; stroke-opacity: 1; stroke: rgb(18, 18, 18); fill: none;"></path><path class="link" marker-end="" d="M528,425.5C693,425.5 693,195 858,195" style="stroke-width: 0.86; stroke-opacity: 1; stroke: rgb(18, 18, 18); fill: none;"></path><path class="link" marker-end="" d="M528,425.5C693,425.5 693,260 858,260" style="stroke-width: 0.86; stroke-opacity: 1; stroke: rgb(18, 18, 18); fill: none;"></path><path class="link" marker-end="" d="M528,425.5C693,425.5 693,325 858,325" style="stroke-width: 0.86; stroke-opacity: 1; stroke: rgb(18, 18, 18); fill: none;"></path><path class="link" marker-end="" d="M528,425.5C693,425.5 693,390 858,390" style="stroke-width: 0.86; stroke-opacity: 1; stroke: rgb(18, 18, 18); fill: none;"></path><path class="link" marker-end="" d="M528,425.5C693,425.5 693,455 858,455" style="stroke-width: 0.86; stroke-opacity: 1; stroke: rgb(18, 18, 18); fill: none;"></path><path class="link" marker-end="" d="M528,492.5C693,492.5 693,195 858,195" style="stroke-width: 0.86; stroke-opacity: 1; stroke: rgb(18, 18, 18); fill: none;"></path><path class="link" marker-end="" d="M528,492.5C693,492.5 693,260 858,260" style="stroke-width: 0.86; stroke-opacity: 1; stroke: rgb(18, 18, 18); fill: none;"></path><path class="link" marker-end="" d="M528,492.5C693,492.5 693,325 858,325" style="stroke-width: 0.86; stroke-opacity: 1; stroke: rgb(18, 18, 18); fill: none;"></path><path class="link" marker-end="" d="M528,492.5C693,492.5 693,390 858,390" style="stroke-width: 0.86; stroke-opacity: 1; stroke: rgb(18, 18, 18); fill: none;"></path><path class="link" marker-end="" d="M528,492.5C693,492.5 693,455 858,455" style="stroke-width: 0.86; stroke-opacity: 1; stroke: rgb(18, 18, 18); fill: none;"></path><path class="link" marker-end="" d="M528,559.5C693,559.5 693,195 858,195" style="stroke-width: 0.86; stroke-opacity: 1; stroke: rgb(18, 18, 18); fill: none;"></path><path class="link" marker-end="" d="M528,559.5C693,559.5 693,260 858,260" style="stroke-width: 0.86; stroke-opacity: 1; stroke: rgb(18, 18, 18); fill: none;"></path><path class="link" marker-end="" d="M528,559.5C693,559.5 693,325 858,325" style="stroke-width: 0.86; stroke-opacity: 1; stroke: rgb(18, 18, 18); fill: none;"></path><path class="link" marker-end="" d="M528,559.5C693,559.5 693,390 858,390" style="stroke-width: 0.86; stroke-opacity: 1; stroke: rgb(18, 18, 18); fill: none;"></path><path class="link" marker-end="" d="M528,559.5C693,559.5 693,455 858,455" style="stroke-width: 0.86; stroke-opacity: 1; stroke: rgb(18, 18, 18); fill: none;"></path><path class="link" marker-end="" d="M858,130C1023,130 1023,292.5 1188,292.5" style="stroke-width: 0.86; stroke-opacity: 1; stroke: rgb(18, 18, 18); fill: none;"></path><path class="link" marker-end="" d="M858,195C1023,195 1023,292.5 1188,292.5" style="stroke-width: 0.86; stroke-opacity: 1; stroke: rgb(18, 18, 18); fill: none;"></path><path class="link" marker-end="" d="M858,260C1023,260 1023,292.5 1188,292.5" style="stroke-width: 0.86; stroke-opacity: 1; stroke: rgb(18, 18, 18); fill: none;"></path><path class="link" marker-end="" d="M858,325C1023,325 1023,292.5 1188,292.5" style="stroke-width: 0.86; stroke-opacity: 1; stroke: rgb(18, 18, 18); fill: none;"></path><path class="link" marker-end="" d="M858,390C1023,390 1023,292.5 1188,292.5" style="stroke-width: 0.86; stroke-opacity: 1; stroke: rgb(18, 18, 18); fill: none;"></path><path class="link" marker-end="" d="M858,455C1023,455 1023,292.5 1188,292.5" style="stroke-width: 0.86; stroke-opacity: 1; stroke: rgb(18, 18, 18); fill: none;"></path><path class="link" marker-end="" d="M858,130C1023,130 1023,357.5 1188,357.5" style="stroke-width: 0.86; stroke-opacity: 1; stroke: rgb(18, 18, 18); fill: none;"></path><path class="link" marker-end="" d="M858,195C1023,195 1023,357.5 1188,357.5" style="stroke-width: 0.86; stroke-opacity: 1; stroke: rgb(18, 18, 18); fill: none;"></path><path class="link" marker-end="" d="M858,260C1023,260 1023,357.5 1188,357.5" style="stroke-width: 0.86; stroke-opacity: 1; stroke: rgb(18, 18, 18); fill: none;"></path><path class="link" marker-end="" d="M858,325C1023,325 1023,357.5 1188,357.5" style="stroke-width: 0.86; stroke-opacity: 1; stroke: rgb(18, 18, 18); fill: none;"></path><path class="link" marker-end="" d="M858,390C1023,390 1023,357.5 1188,357.5" style="stroke-width: 0.86; stroke-opacity: 1; stroke: rgb(18, 18, 18); fill: none;"></path><path class="link" marker-end="" d="M858,455C1023,455 1023,357.5 1188,357.5" style="stroke-width: 0.86; stroke-opacity: 1; stroke: rgb(18, 18, 18); fill: none;"></path><path class="link" marker-end="" d="M528,-177.5C693,-177.5 693,520 858,520" style="stroke-width: 0.86; stroke-opacity: 1; stroke: rgb(18, 18, 18); fill: none;"></path><path class="link" marker-end="" d="M528,-110.5C693,-110.5 693,520 858,520" style="stroke-width: 0.86; stroke-opacity: 1; stroke: rgb(18, 18, 18); fill: none;"></path><path class="link" marker-end="" d="M528,-43.5C693,-43.5 693,520 858,520" style="stroke-width: 0.86; stroke-opacity: 1; stroke: rgb(18, 18, 18); fill: none;"></path><path class="link" marker-end="" d="M528,23.5C693,23.5 693,520 858,520" style="stroke-width: 0.86; stroke-opacity: 1; stroke: rgb(18, 18, 18); fill: none;"></path><path class="link" marker-end="" d="M528,90.5C693,90.5 693,520 858,520" style="stroke-width: 0.86; stroke-opacity: 1; stroke: rgb(18, 18, 18); fill: none;"></path><path class="link" marker-end="" d="M528,157.5C693,157.5 693,520 858,520" style="stroke-width: 0.86; stroke-opacity: 1; stroke: rgb(18, 18, 18); fill: none;"></path><path class="link" marker-end="" d="M528,224.5C693,224.5 693,520 858,520" style="stroke-width: 0.86; stroke-opacity: 1; stroke: rgb(18, 18, 18); fill: none;"></path><path class="link" marker-end="" d="M528,291.5C693,291.5 693,520 858,520" style="stroke-width: 0.86; stroke-opacity: 1; stroke: rgb(18, 18, 18); fill: none;"></path><path class="link" marker-end="" d="M528,358.5C693,358.5 693,520 858,520" style="stroke-width: 0.86; stroke-opacity: 1; stroke: rgb(18, 18, 18); fill: none;"></path><path class="link" marker-end="" d="M528,425.5C693,425.5 693,520 858,520" style="stroke-width: 0.86; stroke-opacity: 1; stroke: rgb(18, 18, 18); fill: none;"></path><path class="link" marker-end="" d="M528,492.5C693,492.5 693,520 858,520" style="stroke-width: 0.86; stroke-opacity: 1; stroke: rgb(18, 18, 18); fill: none;"></path><path class="link" marker-end="" d="M528,559.5C693,559.5 693,520 858,520" style="stroke-width: 0.86; stroke-opacity: 1; stroke: rgb(18, 18, 18); fill: none;"></path><path class="link" marker-end="" d="M858,520C1023,520 1023,292.5 1188,292.5" style="stroke-width: 0.86; stroke-opacity: 1; stroke: rgb(18, 18, 18); fill: none;"></path><path class="link" marker-end="" d="M858,520C1023,520 1023,357.5 1188,357.5" style="stroke-width: 0.86; stroke-opacity: 1; stroke: rgb(18, 18, 18); fill: none;"></path><path class="link" marker-end="" d="M858,130C1023,130 1023,422.5 1188,422.5" style="stroke-width: 0.86; stroke-opacity: 1; stroke: rgb(18, 18, 18); fill: none;"></path><path class="link" marker-end="" d="M858,195C1023,195 1023,422.5 1188,422.5" style="stroke-width: 0.86; stroke-opacity: 1; stroke: rgb(18, 18, 18); fill: none;"></path><path class="link" marker-end="" d="M858,260C1023,260 1023,422.5 1188,422.5" style="stroke-width: 0.86; stroke-opacity: 1; stroke: rgb(18, 18, 18); fill: none;"></path><path class="link" marker-end="" d="M858,325C1023,325 1023,422.5 1188,422.5" style="stroke-width: 0.86; stroke-opacity: 1; stroke: rgb(18, 18, 18); fill: none;"></path><path class="link" marker-end="" d="M858,390C1023,390 1023,422.5 1188,422.5" style="stroke-width: 0.86; stroke-opacity: 1; stroke: rgb(18, 18, 18); fill: none;"></path><path class="link" marker-end="" d="M858,455C1023,455 1023,422.5 1188,422.5" style="stroke-width: 0.86; stroke-opacity: 1; stroke: rgb(18, 18, 18); fill: none;"></path><path class="link" marker-end="" d="M858,520C1023,520 1023,422.5 1188,422.5" style="stroke-width: 0.86; stroke-opacity: 1; stroke: rgb(18, 18, 18); fill: none;"></path><path class="link" marker-end="" d="M198,260C363,260 363,-177.5 528,-177.5" style="stroke-width: 0.86; stroke-opacity: 1; stroke: rgb(18, 18, 18); fill: none;"></path><path class="link" marker-end="" d="M198,325C363,325 363,-177.5 528,-177.5" style="stroke-width: 0.86; stroke-opacity: 1; stroke: rgb(18, 18, 18); fill: none;"></path><path class="link" marker-end="" d="M198,390C363,390 363,-177.5 528,-177.5" style="stroke-width: 0.86; stroke-opacity: 1; stroke: rgb(18, 18, 18); fill: none;"></path><path class="link" marker-end="" d="M528,-177.5C693,-177.5 693,130 858,130" style="stroke-width: 0.86; stroke-opacity: 1; stroke: rgb(18, 18, 18); fill: none;"></path><path class="link" marker-end="" d="M528,-110.5C693,-110.5 693,130 858,130" style="stroke-width: 0.86; stroke-opacity: 1; stroke: rgb(18, 18, 18); fill: none;"></path><path class="link" marker-end="" d="M528,-43.5C693,-43.5 693,130 858,130" style="stroke-width: 0.86; stroke-opacity: 1; stroke: rgb(18, 18, 18); fill: none;"></path><path class="link" marker-end="" d="M528,23.5C693,23.5 693,130 858,130" style="stroke-width: 0.86; stroke-opacity: 1; stroke: rgb(18, 18, 18); fill: none;"></path><path class="link" marker-end="" d="M528,90.5C693,90.5 693,130 858,130" style="stroke-width: 0.86; stroke-opacity: 1; stroke: rgb(18, 18, 18); fill: none;"></path><path class="link" marker-end="" d="M528,157.5C693,157.5 693,130 858,130" style="stroke-width: 0.86; stroke-opacity: 1; stroke: rgb(18, 18, 18); fill: none;"></path><path class="link" marker-end="" d="M528,224.5C693,224.5 693,130 858,130" style="stroke-width: 0.86; stroke-opacity: 1; stroke: rgb(18, 18, 18); fill: none;"></path><path class="link" marker-end="" d="M528,291.5C693,291.5 693,130 858,130" style="stroke-width: 0.86; stroke-opacity: 1; stroke: rgb(18, 18, 18); fill: none;"></path><path class="link" marker-end="" d="M528,358.5C693,358.5 693,130 858,130" style="stroke-width: 0.86; stroke-opacity: 1; stroke: rgb(18, 18, 18); fill: none;"></path><path class="link" marker-end="" d="M528,425.5C693,425.5 693,130 858,130" style="stroke-width: 0.86; stroke-opacity: 1; stroke: rgb(18, 18, 18); fill: none;"></path><path class="link" marker-end="" d="M528,492.5C693,492.5 693,130 858,130" style="stroke-width: 0.86; stroke-opacity: 1; stroke: rgb(18, 18, 18); fill: none;"></path><path class="link" marker-end="" d="M528,559.5C693,559.5 693,130 858,130" style="stroke-width: 0.86; stroke-opacity: 1; stroke: rgb(18, 18, 18); fill: none;"></path><path class="link" marker-end="" d="M858,130C1023,130 1023,227.5 1188,227.5" style="stroke-width: 0.86; stroke-opacity: 1; stroke: rgb(18, 18, 18); fill: none;"></path><path class="link" marker-end="" d="M858,195C1023,195 1023,227.5 1188,227.5" style="stroke-width: 0.86; stroke-opacity: 1; stroke: rgb(18, 18, 18); fill: none;"></path><path class="link" marker-end="" d="M858,260C1023,260 1023,227.5 1188,227.5" style="stroke-width: 0.86; stroke-opacity: 1; stroke: rgb(18, 18, 18); fill: none;"></path><path class="link" marker-end="" d="M858,325C1023,325 1023,227.5 1188,227.5" style="stroke-width: 0.86; stroke-opacity: 1; stroke: rgb(18, 18, 18); fill: none;"></path><path class="link" marker-end="" d="M858,390C1023,390 1023,227.5 1188,227.5" style="stroke-width: 0.86; stroke-opacity: 1; stroke: rgb(18, 18, 18); fill: none;"></path><path class="link" marker-end="" d="M858,455C1023,455 1023,227.5 1188,227.5" style="stroke-width: 0.86; stroke-opacity: 1; stroke: rgb(18, 18, 18); fill: none;"></path><path class="link" marker-end="" d="M858,520C1023,520 1023,227.5 1188,227.5" style="stroke-width: 0.86; stroke-opacity: 1; stroke: rgb(18, 18, 18); fill: none;"></path><path class="link" marker-end="" d="M1188,227.5C1353,227.5 1353,227.5 1518,227.5" style="stroke-width: 0.86; stroke-opacity: 1; stroke: rgb(18, 18, 18); fill: none;"></path><path class="link" marker-end="" d="M1188,292.5C1353,292.5 1353,227.5 1518,227.5" style="stroke-width: 0.86; stroke-opacity: 1; stroke: rgb(18, 18, 18); fill: none;"></path><path class="link" marker-end="" d="M1188,357.5C1353,357.5 1353,227.5 1518,227.5" style="stroke-width: 0.86; stroke-opacity: 1; stroke: rgb(18, 18, 18); fill: none;"></path><path class="link" marker-end="" d="M1188,422.5C1353,422.5 1353,227.5 1518,227.5" style="stroke-width: 0.86; stroke-opacity: 1; stroke: rgb(18, 18, 18); fill: none;"></path><path class="link" marker-end="" d="M1188,227.5C1353,227.5 1353,292.5 1518,292.5" style="stroke-width: 0.86; stroke-opacity: 1; stroke: rgb(18, 18, 18); fill: none;"></path><path class="link" marker-end="" d="M1188,292.5C1353,292.5 1353,292.5 1518,292.5" style="stroke-width: 0.86; stroke-opacity: 1; stroke: rgb(18, 18, 18); fill: none;"></path><path class="link" marker-end="" d="M1188,357.5C1353,357.5 1353,292.5 1518,292.5" style="stroke-width: 0.86; stroke-opacity: 1; stroke: rgb(18, 18, 18); fill: none;"></path><path class="link" marker-end="" d="M1188,422.5C1353,422.5 1353,292.5 1518,292.5" style="stroke-width: 0.86; stroke-opacity: 1; stroke: rgb(18, 18, 18); fill: none;"></path><path class="link" marker-end="" d="M1518,227.5C1683,227.5 1683,325 1848,325" style="stroke-width: 0.86; stroke-opacity: 1; stroke: rgb(18, 18, 18); fill: none;"></path><path class="link" marker-end="" d="M1518,292.5C1683,292.5 1683,325 1848,325" style="stroke-width: 0.86; stroke-opacity: 1; stroke: rgb(18, 18, 18); fill: none;"></path><path class="link" marker-end="" d="M198,260C363,260 363,626.5 528,626.5" style="stroke-width: 0.86; stroke-opacity: 1; stroke: rgb(18, 18, 18); fill: none;"></path><path class="link" marker-end="" d="M198,325C363,325 363,626.5 528,626.5" style="stroke-width: 0.86; stroke-opacity: 1; stroke: rgb(18, 18, 18); fill: none;"></path><path class="link" marker-end="" d="M198,390C363,390 363,626.5 528,626.5" style="stroke-width: 0.86; stroke-opacity: 1; stroke: rgb(18, 18, 18); fill: none;"></path><path class="link" marker-end="" d="M528,626.5C693,626.5 693,130 858,130" style="stroke-width: 0.86; stroke-opacity: 1; stroke: rgb(18, 18, 18); fill: none;"></path><path class="link" marker-end="" d="M528,626.5C693,626.5 693,195 858,195" style="stroke-width: 0.86; stroke-opacity: 1; stroke: rgb(18, 18, 18); fill: none;"></path><path class="link" marker-end="" d="M528,626.5C693,626.5 693,260 858,260" style="stroke-width: 0.86; stroke-opacity: 1; stroke: rgb(18, 18, 18); fill: none;"></path><path class="link" marker-end="" d="M528,626.5C693,626.5 693,325 858,325" style="stroke-width: 0.86; stroke-opacity: 1; stroke: rgb(18, 18, 18); fill: none;"></path><path class="link" marker-end="" d="M528,626.5C693,626.5 693,390 858,390" style="stroke-width: 0.86; stroke-opacity: 1; stroke: rgb(18, 18, 18); fill: none;"></path><path class="link" marker-end="" d="M528,626.5C693,626.5 693,455 858,455" style="stroke-width: 0.86; stroke-opacity: 1; stroke: rgb(18, 18, 18); fill: none;"></path><path class="link" marker-end="" d="M528,626.5C693,626.5 693,520 858,520" style="stroke-width: 0.86; stroke-opacity: 1; stroke: rgb(18, 18, 18); fill: none;"></path><path class="link" marker-end="" d="M198,260C363,260 363,693.5 528,693.5" style="stroke-width: 0.86; stroke-opacity: 1; stroke: rgb(18, 18, 18); fill: none;"></path><path class="link" marker-end="" d="M198,325C363,325 363,693.5 528,693.5" style="stroke-width: 0.86; stroke-opacity: 1; stroke: rgb(18, 18, 18); fill: none;"></path><path class="link" marker-end="" d="M198,390C363,390 363,693.5 528,693.5" style="stroke-width: 0.86; stroke-opacity: 1; stroke: rgb(18, 18, 18); fill: none;"></path><path class="link" marker-end="" d="M528,693.5C693,693.5 693,130 858,130" style="stroke-width: 0.86; stroke-opacity: 1; stroke: rgb(18, 18, 18); fill: none;"></path><path class="link" marker-end="" d="M528,693.5C693,693.5 693,195 858,195" style="stroke-width: 0.86; stroke-opacity: 1; stroke: rgb(18, 18, 18); fill: none;"></path><path class="link" marker-end="" d="M528,693.5C693,693.5 693,260 858,260" style="stroke-width: 0.86; stroke-opacity: 1; stroke: rgb(18, 18, 18); fill: none;"></path><path class="link" marker-end="" d="M528,693.5C693,693.5 693,325 858,325" style="stroke-width: 0.86; stroke-opacity: 1; stroke: rgb(18, 18, 18); fill: none;"></path><path class="link" marker-end="" d="M528,693.5C693,693.5 693,390 858,390" style="stroke-width: 0.86; stroke-opacity: 1; stroke: rgb(18, 18, 18); fill: none;"></path><path class="link" marker-end="" d="M528,693.5C693,693.5 693,455 858,455" style="stroke-width: 0.86; stroke-opacity: 1; stroke: rgb(18, 18, 18); fill: none;"></path><path class="link" marker-end="" d="M528,693.5C693,693.5 693,520 858,520" style="stroke-width: 0.86; stroke-opacity: 1; stroke: rgb(18, 18, 18); fill: none;"></path><path class="link" marker-end="" d="M198,260C363,260 363,760.5 528,760.5" style="stroke-width: 0.86; stroke-opacity: 1; stroke: rgb(18, 18, 18); fill: none;"></path><path class="link" marker-end="" d="M198,325C363,325 363,760.5 528,760.5" style="stroke-width: 0.86; stroke-opacity: 1; stroke: rgb(18, 18, 18); fill: none;"></path><path class="link" marker-end="" d="M198,390C363,390 363,760.5 528,760.5" style="stroke-width: 0.86; stroke-opacity: 1; stroke: rgb(18, 18, 18); fill: none;"></path><path class="link" marker-end="" d="M528,760.5C693,760.5 693,130 858,130" style="stroke-width: 0.86; stroke-opacity: 1; stroke: rgb(18, 18, 18); fill: none;"></path><path class="link" marker-end="" d="M528,760.5C693,760.5 693,195 858,195" style="stroke-width: 0.86; stroke-opacity: 1; stroke: rgb(18, 18, 18); fill: none;"></path><path class="link" marker-end="" d="M528,760.5C693,760.5 693,260 858,260" style="stroke-width: 0.86; stroke-opacity: 1; stroke: rgb(18, 18, 18); fill: none;"></path><path class="link" marker-end="" d="M528,760.5C693,760.5 693,325 858,325" style="stroke-width: 0.86; stroke-opacity: 1; stroke: rgb(18, 18, 18); fill: none;"></path><path class="link" marker-end="" d="M528,760.5C693,760.5 693,390 858,390" style="stroke-width: 0.86; stroke-opacity: 1; stroke: rgb(18, 18, 18); fill: none;"></path><path class="link" marker-end="" d="M528,760.5C693,760.5 693,455 858,455" style="stroke-width: 0.86; stroke-opacity: 1; stroke: rgb(18, 18, 18); fill: none;"></path><path class="link" marker-end="" d="M528,760.5C693,760.5 693,520 858,520" style="stroke-width: 0.86; stroke-opacity: 1; stroke: rgb(18, 18, 18); fill: none;"></path><path class="link" marker-end="" d="M198,260C363,260 363,827.5 528,827.5" style="stroke-width: 0.86; stroke-opacity: 1; stroke: rgb(18, 18, 18); fill: none;"></path><path class="link" marker-end="" d="M198,325C363,325 363,827.5 528,827.5" style="stroke-width: 0.86; stroke-opacity: 1; stroke: rgb(18, 18, 18); fill: none;"></path><path class="link" marker-end="" d="M198,390C363,390 363,827.5 528,827.5" style="stroke-width: 0.86; stroke-opacity: 1; stroke: rgb(18, 18, 18); fill: none;"></path><path class="link" marker-end="" d="M528,827.5C693,827.5 693,130 858,130" style="stroke-width: 0.86; stroke-opacity: 1; stroke: rgb(18, 18, 18); fill: none;"></path><path class="link" marker-end="" d="M528,827.5C693,827.5 693,195 858,195" style="stroke-width: 0.86; stroke-opacity: 1; stroke: rgb(18, 18, 18); fill: none;"></path><path class="link" marker-end="" d="M528,827.5C693,827.5 693,260 858,260" style="stroke-width: 0.86; stroke-opacity: 1; stroke: rgb(18, 18, 18); fill: none;"></path><path class="link" marker-end="" d="M528,827.5C693,827.5 693,325 858,325" style="stroke-width: 0.86; stroke-opacity: 1; stroke: rgb(18, 18, 18); fill: none;"></path><path class="link" marker-end="" d="M528,827.5C693,827.5 693,390 858,390" style="stroke-width: 0.86; stroke-opacity: 1; stroke: rgb(18, 18, 18); fill: none;"></path><path class="link" marker-end="" d="M528,827.5C693,827.5 693,455 858,455" style="stroke-width: 0.86; stroke-opacity: 1; stroke: rgb(18, 18, 18); fill: none;"></path><path class="link" marker-end="" d="M528,827.5C693,827.5 693,520 858,520" style="stroke-width: 0.86; stroke-opacity: 1; stroke: rgb(18, 18, 18); fill: none;"></path><path class="link" marker-end="" d="M1188,227.5C1353,227.5 1353,357.5 1518,357.5" style="stroke-width: 0.86; stroke-opacity: 1; stroke: rgb(18, 18, 18); fill: none;"></path><path class="link" marker-end="" d="M1188,292.5C1353,292.5 1353,357.5 1518,357.5" style="stroke-width: 0.86; stroke-opacity: 1; stroke: rgb(18, 18, 18); fill: none;"></path><path class="link" marker-end="" d="M1188,357.5C1353,357.5 1353,357.5 1518,357.5" style="stroke-width: 0.86; stroke-opacity: 1; stroke: rgb(18, 18, 18); fill: none;"></path><path class="link" marker-end="" d="M1188,422.5C1353,422.5 1353,357.5 1518,357.5" style="stroke-width: 0.86; stroke-opacity: 1; stroke: rgb(18, 18, 18); fill: none;"></path><path class="link" marker-end="" d="M1518,357.5C1683,357.5 1683,325 1848,325" style="stroke-width: 0.86; stroke-opacity: 1; stroke: rgb(18, 18, 18); fill: none;"></path><path class="link" marker-end="" d="M1188,227.5C1353,227.5 1353,422.5 1518,422.5" style="stroke-width: 0.86; stroke-opacity: 1; stroke: rgb(18, 18, 18); fill: none;"></path><path class="link" marker-end="" d="M1188,292.5C1353,292.5 1353,422.5 1518,422.5" style="stroke-width: 0.86; stroke-opacity: 1; stroke: rgb(18, 18, 18); fill: none;"></path><path class="link" marker-end="" d="M1188,357.5C1353,357.5 1353,422.5 1518,422.5" style="stroke-width: 0.86; stroke-opacity: 1; stroke: rgb(18, 18, 18); fill: none;"></path><path class="link" marker-end="" d="M1188,422.5C1353,422.5 1353,422.5 1518,422.5" style="stroke-width: 0.86; stroke-opacity: 1; stroke: rgb(18, 18, 18); fill: none;"></path><path class="link" marker-end="" d="M1518,422.5C1683,422.5 1683,325 1848,325" style="stroke-width: 0.86; stroke-opacity: 1; stroke: rgb(18, 18, 18); fill: none;"></path><circle r="22.5" class="node" id="0_0" cx="198" cy="260" style="fill: rgb(255, 255, 255); stroke: rgb(51, 51, 51);"></circle><circle r="22.5" class="node" id="0_1" cx="198" cy="325" style="fill: rgb(255, 255, 255); stroke: rgb(51, 51, 51);"></circle><circle r="22.5" class="node" id="0_2" cx="198" cy="390" style="fill: rgb(255, 255, 255); stroke: rgb(51, 51, 51);"></circle><circle r="22.5" class="node" id="1_0" cx="528" cy="-177.5" style="fill: rgb(255, 255, 255); stroke: rgb(51, 51, 51);"></circle><circle r="22.5" class="node" id="1_1" cx="528" cy="-110.5" style="fill: rgb(255, 255, 255); stroke: rgb(51, 51, 51);"></circle><circle r="22.5" class="node" id="1_2" cx="528" cy="-43.5" style="fill: rgb(255, 255, 255); stroke: rgb(51, 51, 51);"></circle><circle r="22.5" class="node" id="1_3" cx="528" cy="23.5" style="fill: rgb(255, 255, 255); stroke: rgb(51, 51, 51);"></circle><circle r="22.5" class="node" id="1_4" cx="528" cy="90.5" style="fill: rgb(255, 255, 255); stroke: rgb(51, 51, 51);"></circle><circle r="22.5" class="node" id="1_5" cx="528" cy="157.5" style="fill: rgb(255, 255, 255); stroke: rgb(51, 51, 51);"></circle><circle r="22.5" class="node" id="1_6" cx="528" cy="224.5" style="fill: rgb(255, 255, 255); stroke: rgb(51, 51, 51);"></circle><circle r="22.5" class="node" id="1_7" cx="528" cy="291.5" style="fill: rgb(255, 255, 255); stroke: rgb(51, 51, 51);"></circle><circle r="22.5" class="node" id="1_8" cx="528" cy="358.5" style="fill: rgb(255, 255, 255); stroke: rgb(51, 51, 51);"></circle><circle r="22.5" class="node" id="1_9" cx="528" cy="425.5" style="fill: rgb(255, 255, 255); stroke: rgb(51, 51, 51);"></circle><circle r="22.5" class="node" id="1_10" cx="528" cy="492.5" style="fill: rgb(255, 255, 255); stroke: rgb(51, 51, 51);"></circle><circle r="22.5" class="node" id="1_11" cx="528" cy="559.5" style="fill: rgb(255, 255, 255); stroke: rgb(51, 51, 51);"></circle><circle r="22.5" class="node" id="1_12" cx="528" cy="626.5" style="fill: rgb(255, 255, 255); stroke: rgb(51, 51, 51);"></circle><circle r="22.5" class="node" id="1_13" cx="528" cy="693.5" style="fill: rgb(255, 255, 255); stroke: rgb(51, 51, 51);"></circle><circle r="22.5" class="node" id="1_14" cx="528" cy="760.5" style="fill: rgb(255, 255, 255); stroke: rgb(51, 51, 51);"></circle><circle r="22.5" class="node" id="1_15" cx="528" cy="827.5" style="fill: rgb(255, 255, 255); stroke: rgb(51, 51, 51);"></circle><circle r="22.5" class="node" id="2_0" cx="858" cy="130" style="fill: rgb(255, 255, 255); stroke: rgb(51, 51, 51);"></circle><text class="text" dy=".35em" x="163" y="892.5" style="font-size: 12px;">Input Layer ∈ ℝ³</text><text class="text" dy=".35em" x="493" y="892.5" style="font-size: 12px;">Hidden Layer ∈ ℝ¹⁶</text><text class="text" dy=".35em" x="823" y="892.5" style="font-size: 12px;">Hidden Layer ∈ ℝ⁷</text><circle r="22.5" class="node" id="2_1" cx="858" cy="195" style="fill: rgb(255, 255, 255); stroke: rgb(51, 51, 51);"></circle><circle r="22.5" class="node" id="2_2" cx="858" cy="260" style="fill: rgb(255, 255, 255); stroke: rgb(51, 51, 51);"></circle><circle r="22.5" class="node" id="2_3" cx="858" cy="325" style="fill: rgb(255, 255, 255); stroke: rgb(51, 51, 51);"></circle><circle r="22.5" class="node" id="2_4" cx="858" cy="390" style="fill: rgb(255, 255, 255); stroke: rgb(51, 51, 51);"></circle><circle r="22.5" class="node" id="2_5" cx="858" cy="455" style="fill: rgb(255, 255, 255); stroke: rgb(51, 51, 51);"></circle><circle r="22.5" class="node" id="2_6" cx="858" cy="520" style="fill: rgb(255, 255, 255); stroke: rgb(51, 51, 51);"></circle><circle r="22.5" class="node" id="3_0" cx="1188" cy="227.5" style="fill: rgb(255, 255, 255); stroke: rgb(51, 51, 51);"></circle><text class="text" dy=".35em" x="1153" y="892.5" style="font-size: 12px;">Hidden Layer ∈ ℝ⁴</text><circle r="22.5" class="node" id="3_1" cx="1188" cy="292.5" style="fill: rgb(255, 255, 255); stroke: rgb(51, 51, 51);"></circle><circle r="22.5" class="node" id="3_2" cx="1188" cy="357.5" style="fill: rgb(255, 255, 255); stroke: rgb(51, 51, 51);"></circle><text class="text" dy=".35em" x="1483" y="892.5" style="font-size: 12px;">Hidden Layer ∈ ℝ⁴</text><circle r="22.5" class="node" id="3_3" cx="1188" cy="422.5" style="fill: rgb(255, 255, 255); stroke: rgb(51, 51, 51);"></circle><circle r="22.5" class="node" id="4_0" cx="1518" cy="227.5" style="fill: rgb(255, 255, 255); stroke: rgb(51, 51, 51);"></circle><circle r="22.5" class="node" id="4_1" cx="1518" cy="292.5" style="fill: rgb(255, 255, 255); stroke: rgb(51, 51, 51);"></circle><circle r="22.5" class="node" id="4_2" cx="1518" cy="357.5" style="fill: rgb(255, 255, 255); stroke: rgb(51, 51, 51);"></circle><circle r="22.5" class="node" id="4_3" cx="1518" cy="422.5" style="fill: rgb(255, 255, 255); stroke: rgb(51, 51, 51);"></circle><circle r="22.5" class="node" id="5_0" cx="1848" cy="325" style="fill: rgb(255, 255, 255); stroke: rgb(51, 51, 51);"></circle><text class="text" dy=".35em" x="1813" y="892.5" style="font-size: 12px;">Output Layer ∈ ℝ¹</text></g><defs><marker id="arrow" viewBox="0 -5 10 10" markerWidth="7" markerHeight="7" orient="auto" refX="75"><path d="M0,-5L10,0L0,5" style="stroke: rgb(80, 80, 80); fill: rgb(18, 18, 18);"></path></marker></defs></svg>